<svg version="1.1" viewBox="0 0 290 342.6" width="290" height="342.6"  xmlns="http://www.w3.org/2000/svg">
	<path d="m144.67 342.6-143.84-257.74 289.17-0.019964z" fill="#f36717"/>
	<path d="m178.96 110.14 27.501-2e-3 82.712 147.84-96.909-0.0239 34.729-61.379zm-129.91 60.991-49.052 86.864 166.22-0.0145 13.16-23.341h-94.798zm13.131-23.568 83.368-147.56 46.699 84.839-25.027 0.0023-42.643 0.0023-48.764 87.149z" fill="#00adef"/>
	<path d="m143.36 17.221c-0.29043 0.0061-0.57223 0.04409-0.84595 0.1149-0.54813 0.14026-1.0316 0.4152-1.4384 0.81354-0.30749 0.30314-0.62992 0.77494-0.9904 1.4266l-1.5799 2.8503-0.0854 0.15333 8.0468 4.4597 1.7096-3.0891c0.32546-0.58547 0.53393-1.0896 0.62193-1.521 0.1105-0.56133 0.10948-1.0698-0.0115-1.518-0.15914-0.58115-0.47432-1.1348-0.94618-1.6565h-5e-3c-0.39058-0.43047-0.90758-0.82567-1.5563-1.1849-0.73698-0.4083-1.4094-0.66856-2.0221-0.77814-0.30555-0.05533-0.60561-0.07769-0.89606-0.07083zm0.36848 2.14c0.34817 0.0664 0.8258 0.25837 1.4148 0.58362 0.59068 0.32704 1.02 0.63626 1.2881 0.91374 0.27518 0.28479 0.43036 0.53535 0.4775 0.73689 0.0514 0.22144 0.0469 0.46046-0.0233 0.7251-0.0508 0.18975-0.197 0.51434-0.43326 0.94322l-0.56297 1.0051-4.8164-2.6676 0.30064-0.54824c0.34982-0.63165 0.6174-1.0404 0.76342-1.2056 0.20824-0.23611 0.43372-0.38472 0.68382-0.46276 0.2516-0.07968 0.54998-0.09015 0.9079-0.02356zm-6.072 4.5953-3.3455 6.0366 7.8907 4.3741 0.15332 0.08833 3.431-6.1869-1.6153-0.89606-2.3875 4.3124-1.798-0.99628 2.1516-3.8673-1.6153-0.89608-2.1458 3.8731-1.4119-0.78406 2.308-4.1621zm15.351 7.2156-1.6742 0.92849 0.18269 0.165c0.58013 0.53523 1.2512 0.87732 1.9572 1.1496l-5.4913 3.0477 0.9049 1.633 0.0855 0.15333 8.0881-4.4832-0.81059-1.4649-0.12092 0.01808c-0.53012 0.08673-1.0787 0.01204-1.6595-0.23579-0.59104-0.25219-1.046-0.52826-1.3677-0.82533zm-18.29 1.2616c-0.38246-0.03281-0.76249 0.01608-1.1348 0.15031-0.75393 0.27083-1.3957 0.91383-1.9454 1.9041-0.3367 0.60726-0.53422 1.1865-0.58953 1.7332-0.0551 0.54828 0.0348 1.053 0.27118 1.4974 0.23573 0.43928 0.56741 0.78464 0.99035 1.0199 0.65291 0.36176 1.368 0.41912 2.0957 0.16802 0.53843-0.18392 1.1288-0.64745 1.8068-1.3765 0.52018-0.55634 0.86889-0.90906 1.0199-1.0435 0.22663-0.19941 0.41969-0.30944 0.5571-0.33602 0.14687-0.02835 0.28337-4e-3 0.43624 0.0825h4e-3c0.2375 0.1314 0.37993 0.33908 0.44507 0.67204 0.0616 0.31604-0.0262 0.7112-0.2918 1.1908-0.24728 0.44697-0.54056 0.725-0.88724 0.85479-0.34353 0.12858-0.77411 0.11188-1.3087-0.07084l-0.15333-0.0531-0.75753 1.7538-0.0709 0.165 0.16501 0.0678c0.94682 0.3883 1.8264 0.44717 2.6114 0.15615 0.79114-0.29238 1.4619-0.95785 2.0162-1.9572 0.38005-0.6862 0.60534-1.3147 0.6691-1.9012 0.0638-0.58443-0.0372-1.1353-0.30362-1.6271-0.26404-0.48756-0.63524-0.86776-1.1083-1.1289-0.50863-0.28374-1.0068-0.41976-1.4915-0.39794-0.47559 0.02372-0.92656 0.17446-1.3441 0.44508h-5e-3c-0.41528 0.27262-0.91028 0.73943-1.515 1.4031-0.59168 0.65143-1.0454 1.02-1.2468 1.0965-0.1771 0.06781-0.3079 0.05796-0.44804-0.02054-0.1596-0.08772-0.23695-0.19619-0.25935-0.38022-0.04-0.30658 0.048-0.67564 0.28593-1.1053 0.23013-0.41622 0.47614-0.65832 0.7192-0.75752 0.24138-0.09921 0.56148-0.09579 0.97271 0.05007l0.14447 0.05594 0.95795-1.8894-0.15616-0.07968c-0.38147-0.19501-0.76724-0.3091-1.1497-0.34194zm21.853 4.3506c-0.40434 0.06138-0.81274 0.20464-1.2203 0.43035-0.78233 0.43508-1.3079 1.0337-1.5475 1.7803-0.23761 0.74045-0.17788 1.4546 0.1799 2.1016 0.26097 0.47102 0.73118 0.69238 1.2144 0.88427-0.70121 0.29578-1.3236 0.50386-1.5946 0.46573-0.36214-0.04887-0.58526-0.19297-0.72808-0.44804-0.11627-0.2115-0.13906-0.39516-0.0914-0.57183 0.0463-0.17385 0.18029-0.35124 0.43325-0.5335l0.14153-0.10323-1.0582-1.4915-0.10599-0.15031-0.14443 0.1149c-0.60756 0.48022-0.98806 1.0218-1.1171 1.6212-0.1263 0.5971-8e-3 1.2201 0.34189 1.8511 0.48597 0.8773 1.2304 1.4257 2.1929 1.6094 0.98128 0.18714 2.1822-0.14226 3.6196-0.93735h5e-3c1.4109-0.78291 2.3048-1.6033 2.6587-2.5054 0.34653-0.88102 0.28846-1.7638-0.16802-2.5879-0.41918-0.75621-1.0321-1.252-1.8157-1.4649-0.39214-0.10584-0.79238-0.12616-1.1967-0.06481zm0.85481 1.9012c0.27246 0.05212 0.4522 0.18271 0.58067 0.4156 0.13339 0.24151 0.14669 0.4974 0.0182 0.82827-0.12195 0.31541-0.39573 0.60727-0.84889 0.85774-0.41187 0.22887-0.75494 0.29745-1.0317 0.23875-0.293-0.06177-0.48443-0.20305-0.619-0.44802-0.14048-0.25318-0.15633-0.49877-0.0473-0.78406 0.10222-0.26722 0.37861-0.545 0.85185-0.81058 0.47434-0.26138 0.84416-0.34592 1.0965-0.29771zm-27.996 0.1149-1.0376 1.8747 7.8907 4.3741 0.1533 0.08853 1.0405-1.8747zm-1.8806 3.3926-0.9727 1.7538 4.8046 2.6587-6.4375 0.28887-0.97271 1.7567 7.8935 4.3741 0.15332 0.08551 0.97272-1.7567-4.6985-2.6028 6.3079-0.29771 0.9963-1.8039zm34.449 0.78702-4.7251 1.5799 0.58659 1.5534 0.0884 0.02054c0.52339 0.12234 0.86791 0.36654 1.0788 0.74868 0.1694 0.3064 0.19375 0.5908 0.0883 0.89312-0.1018 0.29185-0.36138 0.5695-0.81353 0.82237-0.48739 0.27165-0.8802 0.35783-1.1938 0.29477h-5e-3c-0.33168-0.0664-0.54453-0.22386-0.69266-0.49225-0.12729-0.23404-0.16199-0.4776-0.0914-0.75458 0.0697-0.27374 0.23869-0.51074 0.52469-0.71921l0.13558-0.0972-1.0641-1.5386-0.10597-0.14729-0.14443 0.10605c-0.62564 0.46975-1.023 1.0681-1.1643 1.7744-0.14384 0.70884 1.6e-4 1.4453 0.4097 2.1871 0.51449 0.93451 1.3019 1.4871 2.3108 1.6182 0.73744 0.09518 1.4479-0.04488 2.1134-0.4156 0.79337-0.4417 1.3261-1.0561 1.5652-1.8246 0.23785-0.76448 0.16137-1.5168-0.2211-2.2136-0.15554-0.28002-0.40714-0.49536-0.65728-0.71037l1.0552-0.36254 1.5563 2.8237 1.6801-0.94029zm1.6565 6.3962c-0.82085 0.04991-1.7678 0.38067-2.8473 0.97858-1.407 0.77897-2.299 1.6008-2.6529 2.5026-0.34628 0.88258-0.28961 1.7616 0.165 2.5821 0.42113 0.76222 1.0347 1.2647 1.8157 1.4738 0.78314 0.21184 1.5984 0.0777 2.4229-0.37731h5e-3c0.77673-0.43127 1.301-1.0268 1.5445-1.7744 0.24003-0.7413 0.17489-1.4637-0.18856-2.1223-0.25446-0.45834-0.72199-0.67077-1.1997-0.85775 0.69544-0.29412 1.3139-0.50332 1.5828-0.46277 0.36049 0.05437 0.58939 0.20408 0.73689 0.4716 0.11325 0.20384 0.14007 0.37836 0.0944 0.56004-0.0445 0.17164-0.1807 0.35473-0.43623 0.53942l-0.14152 0.10324 1.0552 1.4915 0.10599 0.1503 0.14728-0.11488c0.59488-0.47336 0.96822-1.0257 1.0965-1.6388 0.12559-0.61249 5e-3 -1.2376-0.33599-1.854-0.48408-0.87555-1.2285-1.4207-2.1929-1.6064-0.24532-0.04689-0.50455-0.06078-0.77817-0.04425zm-41.844 3.1716-1.0346 1.8658 6.3167 7.5812 1.0994-1.9867-1.403-1.6153 1.6005-2.8946 2.1341 0.30653 0.99334-1.7921 0.12679-0.22696zm39.956 0.18573h5e-3c0.29302 0.06359 0.48216 0.20501 0.61901 0.45098 0.14108 0.25588 0.15833 0.49943 0.0475 0.787-0.10263 0.26956-0.38279 0.54848-0.86662 0.81944-0.46942 0.2589-0.84213 0.3444-1.0935 0.29478-0.2738-0.05647-0.45037-0.19114-0.58068-0.42443-0.12965-0.23831-0.14472-0.49641-0.0182-0.82826 0.11992-0.31822 0.39568-0.60674 0.85775-0.86364 0.41354-0.22877 0.75204-0.29618 1.0287-0.23581zm-38.079 2.0869 2.7443 0.4068-0.93437 1.6801zm-3.929 4.4037c-0.39705 0.02054-0.78244 0.1135-1.1525 0.28-0.74753 0.3363-1.3933 1.006-1.9366 1.9896-0.41759 0.75494-0.64052 1.4716-0.66024 2.1458-0.0275 0.86732 0.18952 1.6699 0.64845 2.3847 0.45768 0.71264 1.1082 1.2982 1.9366 1.7568 0.76516 0.42391 1.5648 0.66633 2.3905 0.71625 0.83387 0.0502 1.6128-0.14448 2.3138-0.57477 0.70268-0.43001 1.2833-1.0646 1.742-1.8953 0.36489-0.65718 0.5982-1.3739 0.70151-2.1488 0.10471-0.77178 0.0926-1.4219-0.053-1.9572l-0.0206-0.07086-3.3042-1.8304-2.0338 3.6669 1.4591 0.80765 0.15332 0.08853 0.99037-1.7862 0.73984 0.40971c0.0388 0.29986 0.0469 0.62059 0 0.9786-0.0519 0.37931-0.16039 0.72321-0.33013 1.0287-0.34652 0.6263-0.82362 0.99506-1.462 1.1378v-0.0063c-0.63012 0.13866-1.3905-0.02054-2.2873-0.51877-0.82909-0.4595-1.3216-0.98336-1.515-1.5711-0.19581-0.59476-0.12274-1.1982 0.23579-1.8481 0.2357-0.42386 0.52374-0.70492 0.8725-0.8666 0.35445-0.1616 0.72145-0.19639 1.1319-0.10324l0.1592 0.03537 0.675-2.0368-0.17386-0.05303c-0.41552-0.12594-0.82325-0.1795-1.2203-0.15919zm51.732 0.67795-9.7802 1.3352 1.1053 1.9867 2.1134-0.33601 1.6035 2.8974-1.3912 1.6418 0.99626 1.798 0.12383 0.22399 6.2578-7.6842zm-1.8865 2.2519-1.801 2.1104-0.93141-1.6772zm-54.811 5.4559c-0.51443 0.03023-0.9698 0.20847-1.3441 0.53057-0.38032 0.32535-0.78332 0.90063-1.2468 1.7361l-1.91 3.4487 7.8935 4.3741 0.1533 0.08552 1.0405-1.8746-3.2394-1.7921 0.0943-0.16501c0.19458-0.35187 0.37189-0.58678 0.49225-0.69268v-0.0023c0.12395-0.11226 0.29146-0.19576 0.50697-0.25051 0.20767-0.05418 0.7453-0.12635 1.5652-0.19456l2.4052-0.19159 1.2321-2.2283-2.3493 0.12679c-0.81392 0.03823-1.3979 0.09696-1.7803 0.19153-0.28789 0.07164-0.58728 0.22279-0.88724 0.37732 0.17751-0.61735 0.28456-1.2114 0.11208-1.7125-0.20562-0.59306-0.62665-1.0646-1.238-1.4031-0.48198-0.26751-0.98558-0.39271-1.5003-0.36254zm61.547 1.0493-8.044 4.4627 1.7125 3.0891c0.32522 0.58503 0.63766 1.0292 0.95794 1.3323h5e-3c0.41729 0.39226 0.84617 0.66053 1.2911 0.79291 0.57717 0.17408 1.215 0.19638 1.907 0.07364 0.57139-0.10284 1.18-0.33658 1.8305-0.69564h5e-3c0.73616-0.40897 1.3092-0.84066 1.7272-1.3028 0.4161-0.45836 0.71361-0.9571 0.88429-1.4944 0.17186-0.54124 0.19375-1.0952 0.071-1.6507v-4e-3c-0.095-0.4218-0.32342-0.94795-0.68384-1.5976l-1.5799-2.8533zm-7.9909 0.34782-1.6359 0.90197-0.15334 0.08852 0.99628 1.7833 1.7833-0.99039zm-53.644 0.8106c0.19176-0.04049 0.39368-4e-3 0.62784 0.1268 0.20955 0.11567 0.3428 0.24812 0.42153 0.40384 0.0803 0.15874 0.1048 0.32563 0.0709 0.51289-0.0274 0.15172-0.25212 0.65904-0.66615 1.4031l-0.55413 0.99629-1.6624-0.91377 0.58951-1.0641c0.34773-0.62954 0.58-1.0163 0.64552-1.1054l2e-3 -0.0063c0.16303-0.20249 0.33429-0.3091 0.52464-0.34782zm61.059 1.6123 0.3036 0.54825c0.34983 0.62973 0.55956 1.0696 0.62193 1.2792 0.0892 0.30099 0.0953 0.57776 0.0298 0.83416-0.0654 0.25348-0.21396 0.51334-0.46277 0.7811-0.23996 0.25844-0.6564 0.55738-1.2468 0.88429-0.58879 0.32512-1.0784 0.5304-1.4561 0.61308-0.38378 0.08152-0.68133 0.07568-0.8784 8e-3 -0.21476-0.07223-0.41417-0.20368-0.60129-0.40383-0.13383-0.14249-0.32985-0.43219-0.56593-0.86068v-0.0063l-0.56008-1.0081zm-64.85 4.4921c-0.29552 0.01026-0.58481 0.05303-0.86953 0.12976-1.1353 0.30635-2.0388 1.0645-2.6881 2.2372-0.35945 0.64664-0.57735 1.2843-0.64256 1.9071-0.053 0.47245-5e-4 0.95759 0.15031 1.4561 0.15068 0.49801 0.38256 0.95403 0.69268 1.3647 0.42376 0.55869 1.0392 1.0592 1.8452 1.5062 1.2636 0.69967 2.475 0.91021 3.6049 0.60721 1.1282-0.30253 2.0331-1.0639 2.6881-2.246 0.64727-1.1705 0.80718-2.3344 0.46275-3.4515-0.3472-1.1216-1.176-2.0404-2.4553-2.7501-0.96837-0.53508-1.9018-0.79374-2.7885-0.76045zm-0.50109 2.1577c0.59398-0.13563 1.3252 0.02053 2.1901 0.50108 0.87653 0.48438 1.3981 1.0316 1.6064 1.6271 0.21422 0.60706 0.16097 1.1792-0.16503 1.7686-0.32567 0.58694-0.78362 0.9358-1.4178 1.0788-0.62352 0.14248-1.3578-4e-3 -2.2136-0.47747-0.86901-0.4826-1.3876-1.0227-1.5917-1.6094-0.2078-0.59529-0.15014-1.1724 0.1885-1.7833 0.33905-0.61145 0.796-0.969 1.403-1.1053zm64.045 1.9543-1.633 0.90195-0.15332 0.08853 0.99333 1.7833 1.7833-0.99039zm-71.027 5.6652-1.1997 2.1665 1.9778 3.3131-3.882 0.1268-1.2174 2.1929-0.0019 4e-3 -3.5695 6.4435 1.6123 0.89312 1.2675-2.2931 6.2813 3.4839 0.15333 0.0855 1.0405-1.8746-6.4316-3.5636 1.2616-2.2843-1.6064-0.89018 6.3167-0.36842 3.2099 1.7803 0.15332 0.08552 1.0405-1.8747-3.3544-1.8599zm-68.49 2.4613c-0.47228 0-0.85147 0.06703-1.1437 0.22696-0.64075 0.33607-1.1455 0.69868-1.5151 1.0936v0.0023h-0.0062c-0.19661 0.22011-0.34554 0.45973-0.45391 0.7133-0.10843 0.25662-0.16501 0.53862-0.16501 0.84302 0 0.93036 0.22354 1.6063 0.55419 2.1635h-1.4738v2.1223h1.5563v7.9613l2.305 2.308v-10.269h1.8864v-0.0268h6.6379v2.7147c-0.35151-0.41718-0.7255-0.82103-1.2439-1.1083-0.38193-0.2124-0.71552-0.36932-1.0081-0.47455-0.29694-0.10684-0.59616-0.16216-0.89312-0.16216-1.3642 0-2.4883 0.3298-3.3455 1.0022l-0.14448 0.11487 1.6477 1.8658 0.12377-0.1976c0.42967-0.67782 1.1679-1.0135 2.2726-1.0169 0.44867 0.05646 0.80992 0.29895 1.1554 0.59246l-4.1856 2.3758 1.6595 1.409 3.9616-2.2432v3.204l2.3758 2.1959v-10.272h1.1849v-2.0958h-12.536c-0.17226-0.35484-0.28-0.71904-0.28-1.1024 0-0.59633 0.2006-1.1146 0.60721-1.5858 0.39653-0.45985 0.9129-0.68383 1.6035-0.68383 0.41353 0 1.0076 0.11049 1.7568 0.34485 0.41878 0.13017 0.80766 0.36722 1.1731 0.7192 0.37452 0.35888 0.67552 0.73196 0.90785 1.123 0.23637 0.39785 0.38638 0.72737 0.44804 0.97564l0.0325 0.13262h0.8872l-0.062-0.21811c-0.23597-0.85354-0.57288-1.5781-1.011-2.1665-0.43749-0.59234-1.0418-1.1122-1.8098-1.5681-0.53308-0.32073-1.1021-0.5689-1.7067-0.74575-0.60543-0.1771-1.1919-0.26825-1.7538-0.26825zm116.86 0c-0.47038 0-0.85111 0.06679-1.1436 0.22696-0.64019 0.33653-1.1461 0.6984-1.518 1.0936v0.0023h-3e-3c-0.19376 0.21931-0.34816 0.45893-0.45688 0.7133-0.10847 0.25662-0.16502 0.53862-0.16502 0.84302 0 0.92896 0.22301 1.6065 0.55414 2.1635h-1.4738v2.1223h1.5563v7.9613l2.3108 2.308v-10.269h7.9319v2.1104c-0.6857-0.66889-1.4583-1.1437-2.3905-1.1437-0.40915 0-0.79926 0.05876-1.1643 0.1799-0.74645 0.22673-1.2864 0.47832-1.6329 0.77816-0.35655 0.30658-0.57595 0.7757-0.6809 1.3824v0.0058l-0.0474 0.45095v0.01209c0 1.0002 0.48928 1.9114 1.4296 2.7088 0.77454 0.66449 1.6063 1.0081 2.473 1.0081 0.25639 0 0.63822-0.11129 1.2409-0.31833 0.30076-0.10404 0.53753-0.18898 0.70742-0.25348 0.0319-0.0121 0.0383-0.0201 0.0648-0.0297v0.82227l2.4935 2.5615v-10.275h1.8393v-4e-3h1.4827c-0.34543 0.32962-0.67206 0.68043-0.67206 1.1496 0 0.67801 0.38194 1.2754 1.0876 1.7627h5e-3c0.44547 0.29911 0.9087 0.45984 1.3854 0.45984 0.1958 0 0.34148-0.04563 0.50406-0.07665-0.0826 0.299-0.1719 0.59469-0.37734 0.8872-0.16803 0.23614-0.36528 0.39893-0.56891 0.54529-0.02-0.0205-0.0239-0.0428-0.0474-0.06478-0.0975-0.09261-0.23004-0.19884-0.3979-0.31833-0.34851-0.24806-0.70112-0.38318-1.0464-0.38318h-0.0145c-0.32569 0.03365-0.61415 0.17323-0.84006 0.3979-0.22536 0.22308-0.36956 0.49539-0.42153 0.80468l-3e-3 0.0183v0.0121c0 0.6776 0.2576 1.2265 0.75458 1.5799 0.29262 0.21105 0.70675 0.29769 1.2439 0.29769h5e-3l0.63667-0.0355 0.17687-0.0234 2.2106 3.0388 1.1761-0.54237-2.2313-3.0654c0.96741-0.60898 1.6648-1.3951 1.9366-2.4229v-0.0038c0.13383-0.51637 0.20043-0.98693 0.20043-1.4119 0-0.96103-0.41747-1.8161-1.0376-2.6056h2.0722v0.0023h6.3843v2.1104c-0.68566-0.66888-1.4553-1.1437-2.3875-1.1437-0.40914 0-0.79803 0.05876-1.1614 0.1799-0.74828 0.22667-1.2921 0.47827-1.6386 0.77812-0.35371 0.30608-0.57488 0.7746-0.67794 1.3824v0.0058l-0.0475 0.45101v0.01209c0 1.0002 0.48929 1.9114 1.4296 2.7088 0.77646 0.66435 1.6082 1.0081 2.473 1.0081 0.25639 0 0.63823-0.11129 1.241-0.31833 0.30076-0.10405 0.53746-0.18897 0.70738-0.25348 0.0319-0.0121 0.0354-0.02 0.0622-0.0297v0.8223l2.4966 2.5615v-10.275h3.0507v7.9615l2.3108 2.308v-10.269h7.9289v2.1104c-0.68567-0.66888-1.4583-1.1437-2.3905-1.1437-0.40916 0-0.79631 0.05876-1.1614 0.1799-0.74645 0.22673-1.2894 0.47832-1.6359 0.77816-0.35658 0.30659-0.57595 0.77573-0.6809 1.3824v0.0058l-0.0474 0.45101v0.01209c0 1.0002 0.49226 1.9114 1.4325 2.7088 0.77455 0.66448 1.6033 1.008 2.47 1.008 0.25639 0 0.64113-0.11129 1.2439-0.31834 0.30078-0.10404 0.53748-0.18896 0.7074-0.25347 0.0313-0.0121 0.0355-0.02 0.0621-0.0297v0.82235l2.4966 2.5615v-10.275h5.8775v1.2026h-2.2519c-0.54139 0-0.97313 0.11351-1.2763 0.3655-0.30317 0.25194-0.45103 0.63661-0.45103 1.1024 0 0.74937 0.17387 1.3938 0.53058 1.9159 0.31356 0.46179 0.79255 0.64618 1.3146 0.70741-0.25022 0.47906-0.40673 1.0202-0.40673 1.6684v0.0319c0.0562 0.31827 0.26441 0.64028 0.60423 1.0051 0.17124 0.1839 0.36715 0.35934 0.58952 0.51876h5e-3c0.22118 0.15715 0.45447 0.30358 0.7074 0.43623 0.25429 0.13541 0.51335 0.24448 0.78114 0.32421 0.27014 0.0828 0.5352 0.12378 0.78402 0.12378 0.64781 0 1.257-0.16803 1.8157-0.50108 0.42237-0.25024 0.69427-0.56983 0.9609-0.89018l2.2815 2.2519v-10.263h2.8768v7.6903l2.308 2.6175v-10.308h9.5236v1.5033c-0.49916 0.01026-0.92833 0.0376-1.1997 0.1268h-5e-3c-0.37946 0.12657-0.73145 0.35445-1.0759 0.63666-0.29122-0.34696-0.68369-0.63685-1.2734-0.82531-0.64981-0.20562-1.2637-0.30948-1.8363-0.30948h-0.0234l-0.0234 0.0063c-1.2615 0.35597-2.0386 1.1129-2.2432 2.2166v0.0058l-0.0474 0.38319v0.0077c0 0.3566 0.0883 0.70385 0.26232 1.0258l3e-3 2e-3v6e-3c0.19136 0.31953 0.43154 0.62313 0.71626 0.90784l0.88723 0.87248 2.1428 2.1516 0.88133-1.0169-2.1666-2.1458h-5e-3c-0.29885-0.27697-0.44217-0.59782-0.44217-0.99922 0-0.16256 0.0215-0.33306 0.0647-0.50696 0.0432-0.17409 0.10114-0.31623 0.16502-0.42449 0.17123-0.27588 0.38091-0.44062 0.6514-0.52173 0.16582-0.04331 0.30716-0.06197 0.42739-0.06197 0.26467 0 0.47902 0.11733 0.68975 0.25348l-0.5748 0.60721 1.745 1.8275 0.11484-0.22109c-9.6e-4 2e-3 0.0495-0.0767 0.13558-0.17687 0.0856-0.1002 0.20653-0.23289 0.36255-0.40087 0.30742-0.33106 0.57489-0.56446 0.78994-0.69564 0.33434-0.20312 0.60813-0.31183 0.87247-0.41261v3.9409l2.5201 2.4996-3e-3 -10.263h2.8503c0.24026 0.49823 0.38023 1.0025 0.38023 1.5239 0 0.68411-0.10715 1.1129-0.21222 1.238-0.16925 0.20894-0.55848 0.3508-1.2085 0.3508h-0.13847l-0.0353 0.13262c-0.079 0.32375-0.11788 0.6133-0.11788 0.86954 0 0.35232 0.0733 0.72992 0.21521 1.1348v2e-3c0.24331 0.67451 0.71991 1.2418 1.4089 1.6949 0.6221 0.40636 1.2823 0.61604 1.9749 0.61604 0.26272 0 0.5393-0.0251 0.82237-0.0708h5e-3c0.5681-0.10366 1.0921-0.39026 1.6005-0.731v1.1997l2.3108 2.308v-10.268h2.0043v-2.1223h-51.83c-0.17188-0.35449-0.27414-0.71858-0.27414-1.1024 0-0.59672 0.19502-1.1148 0.60131-1.5858 0.39638-0.45968 0.91504-0.68383 1.6035-0.68383 0.41355 0 1.0054 0.11026 1.7568 0.34485 0.41684 0.13023 0.80766 0.36722 1.1731 0.71923 0.37452 0.35883 0.67554 0.73194 0.90786 1.123 0.23638 0.39791 0.38433 0.72619 0.44806 0.97566l0.0354 0.13262h0.88131l-0.0589-0.21812c-0.23402-0.85404-0.56935-1.5785-1.0051-2.1665-0.43929-0.59205-1.0469-1.1123-1.8127-1.5681-0.53583-0.32147-1.1039-0.56856-1.7096-0.74575-0.60365-0.1771-1.1919-0.26825-1.7538-0.26825-0.4704 0-0.85113 0.06679-1.1437 0.22696-0.64018 0.33648-1.1431 0.69838-1.515 1.0935v0.0023h-5e-3c-0.19375 0.21931-0.34524 0.45893-0.45391 0.71333-0.10845 0.25662-0.165 0.53862-0.165 0.84299 0 0.93057 0.22331 1.6065 0.55417 2.1635h-11.849v0.0023h-7.2216v-0.0023h-12.719c-0.17185-0.35449-0.27704-0.71857-0.27704-1.1024 0-0.5967 0.19503-1.1148 0.60132-1.5858 0.39637-0.45962 0.91503-0.68385 1.6035-0.68385 0.41352 0 1.0054 0.11026 1.7568 0.34485 0.41685 0.13022 0.81064 0.36722 1.1761 0.71921 0.37459 0.35883 0.67555 0.73196 0.90788 1.123 0.23635 0.39785 0.38432 0.72618 0.44803 0.97564l0.0354 0.13262h0.88133l-0.059-0.21811c-0.23403-0.85402-0.57232-1.5785-1.0081-2.1665-0.4393-0.59204-1.0439-1.1123-1.8098-1.5681-0.53582-0.32147-1.1039-0.56856-1.7096-0.74574-0.6037-0.1771-1.192-0.26825-1.7538-0.26825zm-100.49 5.0434 1.6448 2.1223h1.9837v3.1127h-2.5026v-1.518c0-0.29705-0.10586-0.64889-0.30065-1.0759-0.19296-0.42762-0.43007-0.81344-0.70742-1.1555-0.59392-0.73098-1.2734-1.1919-2.0309-1.3647-0.22108-0.04905-0.45306-0.07365-0.69562-0.07365-0.44542 0-0.82448 0.11949-1.1083 0.37138-0.28382 0.25177-0.46595 0.62472-0.55122 1.0906l-2e-3 0.01421v0.0142c0 1.0075 0.39357 1.8365 1.1525 2.4259 0.35079 0.26939 0.70583 0.46771 1.067 0.58951 0.31924 0.10707 0.73086 0.14265 1.1761 0.15616v0.52476h-1.2852c-0.2589 0-0.46926 0.01828-0.63962 0.06478-0.17043 0.04679-0.31337 0.12577-0.38906 0.26825l-0.01204 0.02049-0.05589 0.2476v0.01828c0 0.22223 0.10483 0.45443 0.28297 0.72803l1.913 2.9829 0.17106 0.23877c0.07968 0.1171 0.17385 0.21172 0.27709 0.28296 0.11232 0.0748 0.24721 0.11487 0.38615 0.11487h0.02053l0.01826-2e-3c0.29004-0.0644 0.47542-0.33539 0.59837-0.71921v-6e-3l0.15332-0.43623 0.16803-0.54827v-6e-3c0.04106-0.12514 0.07124-0.22479 0.08834-0.29767v-2e-3c0.01421-0.0698 0.03251-0.16097 0.04735-0.26825v-8e-3l0.06481-0.3419h2.697v2.6114l2.1901 2.2195v-10.273h8.1883v2.1104c-0.68569-0.66888-1.4583-1.1437-2.3905-1.1437-0.40914 0-0.7963 0.05876-1.1613 0.1799-0.74647 0.22673-1.2894 0.47832-1.6359 0.77816-0.35654 0.30658-0.57593 0.7757-0.68089 1.3824v0.0058l-0.04735 0.45106v0.01209c0 1.0002 0.49224 1.9114 1.4325 2.7088 0.77456 0.66449 1.6033 1.0081 2.47 1.0081 0.25639 0 0.64218-0.11144 1.2468-0.31833v-2e-3c0.29974-0.10404 0.53485-0.18611 0.70448-0.25056 0.03138-0.0121 0.03537-0.0201 0.06195-0.0297v0.82236l2.4965 2.5616v-10.275h7.313v1.6506h-3.6904c-0.39836 0-0.73338 0.04563-1.0169 0.14727-0.29842 0.10565-0.52818 0.32421-0.6691 0.62194l-4e-3 0.0019c-0.13279 0.28542-0.19741 0.58305-0.19741 0.88427 0 0.27955 0.0636 0.63752 0.18857 1.0906v0.0019c0.10102 0.33339 0.2982 0.69776 0.58952 1.0965 0.29004 0.39494 0.59247 0.72809 0.90491 1.0051 0.31548 0.28001 0.55624 0.44804 0.81352 0.44804 0.12354 0 0.2565-0.0638 0.32717-0.16803 0.07062-0.10421 0.08835-0.22701 0.08835-0.36551v-2.2255h2.6646v3.5489l2.5438 2.5231v-10.263h1.5888v-2.1223h-20.329zm-1.5475 1.6683c0.33031 0 0.53 0.10707 0.675 0.33898v0.0023c0.20152 0.35906 0.30362 0.71329 0.30362 1.07 0 0.13118-0.0142 0.23066-0.0325 0.29478-0.01827 0.06417-0.04222 0.0823-0.04735 0.08553-0.0684 0.04392-0.16581 0.07667-0.30949 0.07667-0.19701 0-0.40264-0.04447-0.62783-0.14145h-0.0062c-0.22626-0.0962-0.39138-0.20578-0.50991-0.32424v-0.0023c-0.17705-0.17529-0.26232-0.37692-0.26232-0.63375 0-0.235 0.0843-0.41404 0.27116-0.58363 0.14448-0.11813 0.316-0.1827 0.54529-0.1827zm117.71 0.45095c0.21481 0 0.36129 0.08454 0.50703 0.30652 0.15109 0.22855 0.24366 0.49715 0.28 0.80764-3e-3 0.24407-0.0603 0.50108-0.1827 0.78111-0.0647 0.14727-0.12006 0.26426-0.16502 0.34195-0.0234 0.0405-0.0234 0.03759-0.0382 0.05587-0.27749-0.01209-0.52015-0.0807-0.73102-0.24172-0.21549-0.17067-0.34941-0.39323-0.41262-0.68679 3e-3 -0.41798 0.0801-0.75605 0.22398-1.014 0.14342-0.25371 0.29667-0.35073 0.51878-0.35073zm36.328 4e-3h1.3706v4.4685c0 0.6264-0.10264 1.0547-0.26236 1.2851-0.17386 0.24857-0.55202 0.60454-1.126 1.0434-0.29313 0.21697-0.67866 0.4162-1.1584 0.58656-0.48021 0.17242-0.88802 0.25644-1.2174 0.25644-0.29989 0-0.50656-0.0587-0.62193-0.14146-0.11527-0.0828-0.16499-0.18571-0.16499-0.37434 0-0.40885 0.0783-0.66113 0.16802-0.75458 0.10747-0.11327 0.28924-0.19359 0.56006-0.22109l5e-3 -2e-3 2.4052-0.36254-1.7803-1.798h-2.0279c-0.34463 0-0.6173-0.07009-0.83121-0.20044-0.21776-0.13181-0.28724-0.24994-0.2889-0.37434l0.0325-0.16217 3e-3 -0.0038c0.025-0.06244 0.0513-0.08729 0.12962-0.10603 0.11774-0.02792 0.22656-0.04341 0.32719-0.04737 0.11426-0.0038 0.24377-0.0077 0.38906-0.0077h4.0912zm25.784 0h2.6617v3.6342c-0.34974 0.4185-0.74626 0.8102-1.2026 1.1672-0.61662 0.4838-1.1327 0.78856-1.5357 0.9167-0.24121 0.0731-0.42379 0.10604-0.50694 0.10604-0.10933 0-0.22047-0.0297-0.33601-0.0796-0.12035-0.0682-0.22088-0.13844-0.29771-0.21516l-0.23876-0.23579c0.68957-0.26313 1.27-0.66516 1.574-1.3411 0.1537-0.32409 0.23281-0.68733 0.23281-1.0847v-0.45204l-0.0233-0.46868v-0.0077c-4.6e-4 -0.36779-0.0313-0.72202-0.097-1.067l-5e-3 -0.0062c-0.0536-0.27345-0.13615-0.5664-0.22401-0.8666zm-165.29 3.1066c0.30812 0 0.54466 0.03025 0.70741 0.07666 0.16279 0.04622 0.23671 0.10524 0.26232 0.15331l4e-3 0.0058 0.0023 0.0077c0.06177 0.09656 0.08834 0.18692 0.08834 0.28297 0 0.22188-0.08715 0.36893-0.31834 0.50702v0.0038c-0.1167 0.07269-0.29272 0.17146-0.5158 0.28884-0.2244 0.1171-0.50662 0.25549-0.84889 0.41566l-0.56592 0.25644c-0.12737 0.0607-0.23979 0.10866-0.33601 0.14448-0.10038 0.0365-0.2188 0.0738-0.35375 0.11487v4e-3c-0.11391 0.0354-0.26409 0.0502-0.44508 0.0502-0.33287 0-0.55664-0.12458-0.74572-0.41267-2.04e-4 -3.3e-4 -0.0063 3.2e-4 -0.0063 0-0.04449-0.0787-0.06195-0.15755-0.06195-0.23877 0-0.14608 0.08812-0.33363 0.32421-0.55413 0.23608-0.22052 0.60684-0.46208 1.1083-0.71923h0.0063v-0.0038c0.47884-0.25275 1.042-0.38319 1.6949-0.38319zm94.077 0c0.30813 0 0.54466 0.03025 0.70741 0.07666 0.16279 0.04622 0.2397 0.10524 0.26529 0.15331l3e-3 0.0058 4e-3 0.0077c0.0618 0.09656 0.0883 0.18692 0.0883 0.28297 0 0.22188-0.0871 0.36893-0.31832 0.50702v0.0038c-0.11674 0.07269-0.2928 0.17146-0.51582 0.28884-0.22439 0.1171-0.5066 0.25549-0.8489 0.41566l-0.56592 0.25644c-0.12731 0.0607-0.2414 0.10888-0.33899 0.14448-0.0983 0.0365-0.2175 0.0735-0.35374 0.11487-0.11717 0.0354-0.26114 0.0531-0.44212 0.0531-0.33289 0-0.55961-0.12457-0.74869-0.41268h-5e-3c-0.0445-0.0787-0.0621-0.15754-0.0621-0.23876 0-0.14608 0.0881-0.33362 0.32421-0.55413 0.23613-0.22057 0.60685-0.46208 1.1083-0.71923h5e-3v-0.0038c0.47883-0.25268 1.0391-0.38319 1.6919-0.38319zm17.942 0c0.30816 0 0.54468 0.03025 0.70744 0.07666 0.16279 0.04622 0.23672 0.10524 0.26233 0.15331l5e-3 0.0058 3e-3 0.0077c0.0623 0.0976 0.0856 0.18897 0.0856 0.28297 0 0.22103-0.0867 0.36875-0.31833 0.50702v0.0038c-0.11731 0.07308-0.28843 0.17163-0.51289 0.28884-0.22442 0.1171-0.5066 0.25549-0.84889 0.41566l-0.56594 0.25644c-0.12717 0.0607-0.24277 0.10866-0.33899 0.14448-0.10026 0.0365-0.21877 0.0738-0.3537 0.11487v4e-3c-0.11354 0.0348-0.26619 0.0502-0.44507 0.0502-0.33286 0-0.5567-0.12458-0.74573-0.41267h-3e-3c-0.0445-0.0787-0.0648-0.15755-0.0648-0.23877 0-0.14608 0.0913-0.33363 0.32717-0.55413 0.23609-0.22052 0.60698-0.46242 1.1083-0.71923h3e-3v-0.0038c0.47885-0.25275 1.042-0.38319 1.6949-0.38319zm15.787 0c0.30812 0 0.54465 0.03025 0.7074 0.07666 0.1628 0.04622 0.2367 0.10524 0.26232 0.15331l5e-3 0.0058 3e-3 0.0077c0.0618 0.09656 0.0855 0.18692 0.0855 0.28297 0 0.22188-0.087 0.36893-0.31833 0.50702v0.0038c-0.11673 0.07269-0.29278 0.17146-0.51581 0.28884-0.22438 0.1171-0.5066 0.25549-0.84887 0.41566l-0.56594 0.25644c-0.12715 0.0607-0.23848 0.10888-0.33602 0.14448-0.0982 0.0365-0.21742 0.0735-0.35369 0.11487-0.11673 0.0354-0.26621 0.0531-0.44507 0.0531-0.33288 0-0.55665-0.12457-0.74573-0.41268h-3e-3c-0.0445-0.0787-0.0647-0.15754-0.0647-0.23876 0-0.14608 0.0912-0.33362 0.32717-0.55413 0.23609-0.22057 0.60686-0.46208 1.1083-0.71923h3e-3v-0.0038c0.47886-0.25268 1.042-0.38319 1.6948-0.38319zm-97.035 2.3551-1.0376 1.8746 7.8937 4.3742 0.15333 0.0855 1.0405-1.8746zm-0.59835 4.2562c-0.38245-0.0325-0.76249 0.016-1.1348 0.1503-0.75184 0.27083-1.3956 0.91662-1.9454 1.9071-0.33664 0.60725-0.53423 1.1845-0.5895 1.7332-0.05533 0.54642 0.03478 1.053 0.27116 1.4974 0.23574 0.4393 0.56742 0.78167 0.99039 1.0169 0.6529 0.36175 1.3651 0.41987 2.0927 0.17105 0.53782-0.18593 1.1318-0.64743 1.8098-1.3765 0.5202-0.55636 0.86595-0.912 1.0169-1.0464 0.22662-0.19965 0.4197-0.30654 0.5571-0.33313 0.1459-0.028 0.28799-2e-3 0.44216 0.0824 0.23751 0.13141 0.37691 0.33697 0.4421 0.67202 0.05993 0.31482-0.02339 0.71154-0.28885 1.1908-0.24725 0.44695-0.54352 0.72205-0.89018 0.85186-0.34355 0.12855-0.7741 0.11183-1.3087-0.0709l-0.15332-0.0503-0.75752 1.7538-0.07084 0.16499 0.16501 0.0648c0.94683 0.38833 1.8293 0.45015 2.6145 0.15916 0.79112-0.2924 1.4619-0.95786 2.0162-1.9572 0.38011-0.68619 0.60231-1.3176 0.66614-1.9041 0.0638-0.58443-0.0342-1.1353-0.30065-1.6271-0.2642-0.4879-0.63755-0.86492-1.1083-1.126-0.50861-0.28371-1.0098-0.41974-1.4944-0.39791-0.47553 0.024-0.92654 0.17449-1.3441 0.44508h-0.0016c-0.4153 0.27259-0.91322 0.73942-1.518 1.4031-0.59167 0.65141-1.0454 1.02-1.2468 1.0965-0.17705 0.068-0.30756 0.0564-0.44804-0.0206-0.15817-0.0895-0.23711-0.19739-0.25936-0.38027-0.03994-0.30657 0.05076-0.67562 0.28884-1.1053 0.22787-0.41554 0.47588-0.6582 0.71921-0.75754 0.24144-0.0992 0.55857-0.0957 0.96977 0.0503l0.14448 0.0558 0.96091-1.8923-0.15919-0.0766c-0.38142-0.19494-0.7642-0.31199-1.1466-0.34485zm-37.868 0.51579c-0.72155 0-1.2337 0.053-1.571 0.18573l-0.17386 0.0708 0.94026 1.969 0.12092-0.45393c-0.0063 0.0202-8e-3 0.0107 0.0268-0.0121 0.03536-0.0229 0.10444-0.0541 0.19456-0.0824 0.19017-0.0616 0.34098-0.0912 0.43623-0.0944 0.12115-4e-3 0.22593-5e-3 0.32421-5e-3 0.37491 0 0.64285 0.0661 0.79585 0.16801 0.15292 0.10183 0.21515 0.22949 0.21515 0.44806 0 0.27556-0.09378 0.44194-0.31833 0.57773-0.22206 0.1342-0.59453 0.21336-1.1053 0.21514-0.54124-0.0685-1.0238-0.23157-1.4561-0.49818-0.44188-0.27481-0.79494-0.57411-1.0552-0.89899-0.2711-0.33595-0.40264-0.59099-0.41268-0.66026l-0.01826-0.15031-1.0788-2e-3v0.17688c0 0.38348 0.21287 0.82315 0.59835 1.3736 0.38969 0.55636 0.89258 1.0382 1.5062 1.4473 0.65292 0.44639 1.3247 0.67203 2.0073 0.67203 0.77464 0 1.4007-0.15633 1.8599-0.49812 0.46544-0.3485 0.69562-0.91606 0.69562-1.6359 0-0.76677-0.23694-1.3523-0.7251-1.686-0.46178-0.31571-1.0584-0.51864-1.7833-0.62194l-0.01204-2e-3zm203.35 3.1234c-0.82017-4e-3 -1.688 0.11328-2.6056 0.34785h-3e-3l-3.8495 1.0228 0.68381 1.294 4.6631-0.94028c0.0143 0.16437 0.0264 0.33242 0.071 0.48044v2e-3c0.1234 0.38603 0.30819 0.70671 0.51876 1.0022-0.6073 0.18897-1.1319 0.49258-1.4355 1.0287-0.35608 0.62998-0.37075 1.2475-0.27115 1.8452l-3.2334-1.8334-3.3485 0.83415 8.9517 5.0698-0.81943 1.4473-0.16804 0.29472-0.98449 1.7361-2.2873-1.2733 0.46867-0.82536c0.10223-0.18211 0.17451-0.34068 0.21226-0.48631 0.0377-0.14566 0.045-0.2865-0.0144-0.41266v-2e-3c-0.0519-0.10385-0.14006-0.18817-0.24171-0.24465-0.17648-0.0998-0.40699-0.12935-0.70743-0.1209h-3e-3l-3.204 0.27116h-3e-3c-0.49835 0.0786-0.86449 0.24402-1.0375 0.54825v5e-3c-0.0536 0.099-0.0871 0.21179-0.10316 0.34487v0.024c3e-3 0.33669 0.26107 0.61602 0.67205 0.84888l5.3028 3.0036-1.1525 2.0338-7.0212-3.9763-3.0772 0.85775 8.9871 5.0844-0.80176 1.4149-0.17687 0.31542-0.58658 1.0375-6.9327-3.9232-3.145 0.87249 8.937 5.0639-0.76049 1.347-3e-3 -4e-3 -1.795 3.1805-1.683-0.94911c0.0249 0.0182 9e-3 0.0141 0-0.0234-0.0115-0.0383-0.0205-0.10438-0.027-0.19154-9e-3 -0.17424-5e-3 -0.43019 0.027-0.76636v-2e-3l0.0914-1.3323v-7e-3c-0.02-1.0666-0.679-1.9626-1.8982-2.6529-0.55779-0.31507-1.209-0.4626-1.9484-0.44803-0.73979 0.016-1.4453 0.20966-2.1046 0.57477-0.65867 0.36384-1.1726 0.85527-1.521 1.4738-0.261 0.46096-0.42865 0.9797-0.50993 1.5504-0.0813 0.57022-0.0657 1.125 0.0473 1.6624 0.11323 0.53667 0.32141 1.0305 0.62782 1.4797 0.30783 0.45329 0.69707 0.81511 1.1614 1.0759 0.39755 0.22719 0.79112 0.36272 1.1849 0.40383 0.38551 0.0428 0.78495 4e-3 1.1879-0.10906 0.23357-0.0583 0.46498-0.15656 0.69268-0.29476l5e-3 -4e-3c0.24134-0.13222 0.48858-0.28851 0.74277-0.4716l8e-3 -5e-3 0.56593-0.35667c5e-3 -2e-3 5e-3 -5.5e-4 0.0115-2e-3 0.0508-0.0216 0.0942-0.04 0.11484-0.0444l2.2018 1.2468-1.798 3.1716-0.16503 0.2947-2.747 4.8516-1.1083-0.62783 1.2674-2.2402c0.25521-0.4518 0.4225-0.92553 0.49815-1.4178 0.0762-0.49372 0.0307-0.9738-0.12674-1.4207v-4e-3c-0.0856-0.24463-0.19621-0.45777-0.33311-0.63668-0.13964-0.18252-0.31632-0.33584-0.52761-0.45689h-3e-3c-0.61872-0.35033-1.1858-0.58287-1.7096-0.69854-0.51723-0.11591-1.1864-0.19781-2.0191-0.25058h-5e-3c-0.37877-0.0121-0.79364 0.0199-1.2438 0.0971-0.19884 0.0383-0.40926 0.0815-0.62196 0.13262-0.20591 0.0497-0.39852 0.0935-0.57476 0.13843l-3e-3 4e-3 -0.86361 0.28 0.53056 1.0877 1.2321-0.2034h5e-3c0.50486-0.0669 0.992-0.0914 1.4649-0.0738 0.88716 0.0319 1.4782 0.1455 1.7096 0.27703 0.1968 0.11144 0.35565 0.27789 0.48341 0.51877 0.16216 0.30806 0.19599 0.5902 0.11484 0.88428-0.0889 0.31582-0.26158 0.70915-0.5247 1.1761l-0.90196 1.5917-3.6668-2.078-3.1304 0.82532 8.9459 5.0639-0.98744 1.742 1.8452 1.0464 4.8458-8.5656 0.16804-0.29769 4.445-7.8583 0.16499-0.2918 0.98155-1.742c0.394 0.024 0.76811 0.10786 1.1024 0.29769 0.51876 0.29235 0.87286 0.72086 1.0818 1.3058 0.20486 0.57375 0.14413 1.1371-0.19454 1.7361h3e-3c-0.20634 0.36201-0.59577 0.81723-1.1702 1.3559v4e-3c-0.31832 0.29946-0.71724 0.52269-1.2026 0.66911-0.49829 0.14909-0.97155 0.22609-1.4266 0.23578-0.46297 0.0107-0.82032-0.0239-1.07-0.0914l-0.13268-0.0354-0.43328 0.77228 0.22399 0.0531c0.85778 0.21548 1.6505 0.28046 2.3786 0.1885 0.72817-0.0899 1.4804-0.35888 2.2549-0.80467 0.54464-0.3054 1.0414-0.67855 1.4944-1.1171 0.44978-0.43955 0.81966-0.90367 1.0965-1.3942v-2e-3c0.23079-0.40835 0.35856-0.77318 0.36254-1.1053 0.0245-0.72455-0.0456-1.3421-0.20632-1.8599v-5e-3c-0.0959-0.27736-0.22701-0.52555-0.39202-0.7428-0.17043-0.22369-0.39161-0.41391-0.6573-0.56295-0.80997-0.45865-1.5044-0.59961-2.1517-0.58657l0.5453-0.96385 0.17687-0.31246 4.9961-8.8338h3e-3l5.7654-10.193-1.8452-1.0435-1.238 2.1871c-0.33106 0.0405-0.64781-4e-3 -0.9668-0.18572v-4e-3h-3e-3c-0.22686-0.12736-0.37071-0.25871-0.45101-0.38613-0.0768-0.12235-0.0933-0.23904-0.068-0.37731l0.25646-0.36254 0.0115-0.0121c0.13455-0.15396 0.24424-0.29752 0.32127-0.43623l8e-3 -0.0182 8e-3 -0.0206c0.0851-0.31646 0.0815-0.61065-0.0206-0.8607-0.10556-0.2592-0.33796-0.49629-0.68384-0.74575l-8e-3 -5e-3 -8e-3 -4e-3c-0.55815-0.3165-1.2515-0.47251-2.078-0.47456zm-60.316 2.0073-7.8965 4.3741-0.15331 0.0886 1.0434 1.8688 8.044-4.4566zm-109.64 1.6477c-0.51249 0.0303-0.96944 0.20898-1.3441 0.53354-0.38005 0.32511-0.78327 0.89756-1.2468 1.7332l-1.91 3.4427 7.8935 4.3741 0.15332 0.0886 1.0405-1.8747-3.2334-1.7892 0.08836-0.16501c0.19456-0.35188 0.37194-0.58971 0.49224-0.69561 0.12338-0.1117 0.2897-0.19942 0.50702-0.25646 0.20768-0.0542 0.74528-0.12336 1.5652-0.19153l2.4052-0.19154 1.2321-2.2255-2.3493 0.12674c-0.81442 0.0365-1.3994 0.0965-1.7803 0.18856v4e-3c-0.28833 0.0717-0.58767 0.22332-0.88723 0.37732 0.1775-0.61625 0.28457-1.2114 0.11209-1.7125-0.20368-0.59387-0.62679-1.0647-1.238-1.4031-0.48198-0.26751-0.98556-0.3927-1.5003-0.36254zm170.5 0.81944c0.14909 0.137 0.29572 0.26966 0.43919 0.37433 0.17744 0.1296 0.37436 0.2568 0.59246 0.38028 0.32105 0.18173 0.69942 0.32313 1.0906 0.45391l-1.3618 2.3994-1.3234-0.74577c-0.33757-0.19175-0.52688-0.42776-0.60131-0.73099-0.0754-0.29877-0.0455-0.70457 0.10903-1.2026 0.30345-0.53297 0.65872-0.81357 1.0552-0.92848zm-59.117 0.69268-7.8965 4.3741-0.15332 0.0884 0.97564 1.7508 4.7013-2.5998-3.095 5.5002 0.99926 1.8039 8.0498-4.4597-0.97564-1.7567-4.7957 2.6617 3.1656-5.6062zm-111.47 0.69561c0.18937-0.0405 0.39077-4e-3 0.62487 0.12676 0.21064 0.11607 0.3456 0.24878 0.42152 0.40382 0.08029 0.15873 0.10483 0.32563 0.07084 0.5129-0.02737 0.15148-0.25211 0.653-0.66616 1.3971l-0.55413 1.0022-1.6624-0.91964 0.58952-1.0641c0.34776-0.62761 0.58002-1.0104 0.64552-1.0995l4e-3 -5e-3c0.16302-0.20249 0.33213-0.30898 0.52464-0.34782h0.0023zm-5.1818 4.8812-3.3455 6.0366 7.8937 4.3742 0.15332 0.0856 3.431-6.1869-1.6153-0.89605-2.3905 4.3124-1.7951-0.99332 2.1488-3.8673-1.6153-0.89607-2.1458 3.8731-1.4119-0.78406 2.308-4.1621zm179.85 0.11208-1.8835 0.51877 0.53645 1.7568 0.0531 0.16801 1.8128-0.57475zm-60.252 3.4958c-0.88017-0.0182-1.8119 0.2508-2.7914 0.79289-1.2393 0.68348-2.047 1.5763-2.3963 2.6646-0.34571 1.0854-0.22513 2.1756 0.35963 3.2306 0.47087 0.84835 1.0854 1.4463 1.8334 1.7715 0.75059 0.32838 1.632 0.36174 2.6322 0.1179l0.16499-0.0383-0.40674-1.9218-0.0384-0.18572-0.1799 0.053c-0.6111 0.17647-1.1053 0.18476-1.4856 0.0503-0.3911-0.13965-0.6809-0.38859-0.89015-0.76639-0.28913-0.52197-0.32786-1.0219-0.12674-1.5563 0.19534-0.51443 0.75222-1.0528 1.7037-1.5799 0.89568-0.49607 1.6144-0.66488 2.1577-0.55117 0.56057 0.11908 0.97188 0.42813 1.2674 0.96089 0.21356 0.38404 0.27887 0.74926 0.21515 1.126-0.0637 0.37474-0.24743 0.69965-0.5689 0.98745l-0.12963 0.11791 1.4531 1.5946 0.12963-0.12959c0.53739-0.53113 0.88205-1.0754 1.0287-1.6448 0.241-0.93856 0.0871-1.9147-0.45091-2.8827-0.61427-1.1082-1.4969-1.8196-2.6175-2.0988-0.28137-0.0701-0.57026-0.106-0.86365-0.11208zm-159.76 0.25942-8.9694 5.002-0.79289-1.4178-1.6978 0.94616-0.15332 0.0883 5.7742 10.349 0.17106 0.30361 2.367 4.2357h-2e-3l4.5098 8.0764-2e-3 3e-3 1.1967 2.1458c-0.28993 0.46544-0.56577 1.0172-0.82239 1.6683-0.09737 0.2394-0.18349 0.45791-0.25644 0.65436-0.07386 0.19676-0.12714 0.35687-0.16501 0.48927-0.08652 0.28354-0.12937 0.61071-0.13563 0.98742-0.03537 0.97562 0.1503 1.8369 0.56006 2.5702 0.12418 0.22296 0.28576 0.45322 0.47747 0.69859l0.17106 0.22991 1.179-2.5201-0.07084-0.0856c-0.15976-0.19095-0.282-0.36444-0.3655-0.51289-0.04904-0.0878-0.09862-0.20563-0.15332-0.35369-0.05303-0.1511-0.08915-0.26039-0.10906-0.33603-0.08129-0.36561-0.07562-0.84985 0.0268-1.4473 0.04791-0.2995 0.1803-0.58198 0.3213-0.86363l2.9948 5.3617 1.8481-1.0287-2.8356-5.0875 1.4443-0.80467 1.798 3.2218c0.19216 0.34674 0.39881 0.62218 0.62489 0.8194 0.2378 0.20985 0.54244 0.30112 0.86954 0.27709h4e-3c0.31417-0.0223 0.60671-0.10673 0.86954-0.25347 0.24373-0.13643 0.52641-0.36544 0.86068-0.69562l2e-3 -5e-3c0.24064-0.24942 0.4619-0.59648 0.66614-1.0434v-5e-3c0.205-0.44337 0.35273-0.86882 0.44216-1.2763 0.08973-0.4095 0.11973-0.70307-0.0063-0.9285-0.06019-0.10802-0.1783-0.19236-0.30362-0.20339-0.12537-0.0115-0.24173 0.0302-0.36254 0.097l-1.9454 1.0906-1.2999-2.3316 3.1008-1.7302 0.96681-3.4487-8.9694 5.0019-0.77227-1.3824-0.02053 0.0115-0.18857-0.33898 2.5112-1.403c0.89475-0.49862 1.3884-1.3684 1.4677-2.535 0.0519-0.67897-0.06861-1.2978-0.37138-1.8393-0.20597-0.36895-0.5523-0.6811-0.92847-0.97859l2.019-1.1319 0.90489-3.1952-8.993 5.0108-0.74572-1.3352 0.02338-0.0141-0.71331-1.2734 6.7204-3.7493 1.1643-3.2896-9.0079 5.0227-0.71331-1.2763-0.17106-0.30652-3.7552-6.7292 1.3176-0.73397c0.25126 0.43162 0.48511 0.79187 0.69562 0.9845 0.29432 0.27094 0.66367 0.47234 1.0788 0.63668-0.16079 0.42151-0.222 0.90411-0.0972 1.5092 0.13581 0.67043 0.34172 1.257 0.62193 1.7568l0.01204 0.0204 0.01826 0.0141c0.92445 0.92866 1.9628 1.2386 3.0242 0.87842h0.0062l0.35963-0.14728 0.0063-2e-3c0.31246-0.17487 0.57473-0.42276 0.77226-0.73099l2e-3 -2e-3v-5e-3c0.18429-0.32455 0.33088-0.67749 0.4392-1.067l0.33602-1.1996 0.83712-2.9211-1.3205-0.26527-0.81354 2.9358c-0.09861 0.3955-0.30829 0.67773-0.66024 0.87187h-0.0063c-0.13866 0.0785-0.29598 0.13946-0.4716 0.18851-0.17123 0.0463-0.32118 0.0661-0.45095 0.0648-0.32484-0.016-0.57312-0.12274-0.7752-0.32131-0.11613-0.12035-0.20574-0.23244-0.26232-0.33309v-5e-3c-0.12799-0.23062-0.12577-0.47307-0.10906-0.72217l0.80764 0.2034 0.75162-2.4171-0.25051 0.0121c2.22e-4 0-0.09217-0.0107-0.22108-0.0353-0.12879-0.0255-0.30778-0.0629-0.53057-0.11789-0.43971-0.10843-0.76935-0.22947-0.99039-0.3537-0.33961-0.19256-0.57052-0.37509-0.78701-0.5571l3.4427-1.9218zm36.479 2.7913-1.1054 1.9926 4.4184 4.7721-6.4316-1.1436-1.1201 2.0251 9.5236 1.5592 0.12092 0.0205 1.0552-1.9042zm127.12 4.7691c-0.69781 0.0632-1.4488 0.32222-2.2549 0.76934-1.2637 0.69974-2.083 1.6162-2.4259 2.7354-0.34031 1.1176-0.17185 2.2841 0.48339 3.4664 0.64943 1.1706 1.5497 1.9252 2.6795 2.2255 1.1345 0.30099 2.3579 0.0847 3.6373-0.62487 1.2914-0.71563 2.1221-1.6427 2.4672-2.7708 0.34206-1.1248 0.18293-2.2937-0.46867-3.4662-0.35685-0.6477-0.78265-1.1655-1.2763-1.5504-0.37241-0.29576-0.81468-0.51228-1.3176-0.64848-0.50239-0.13603-1.0112-0.1795-1.5239-0.13565zm36.099 1.2969c0.24583 4e-3 0.45506 0.0563 0.63374 0.15616 0.33701 0.19136 0.59727 0.48753 0.77815 0.90786 0.17707 0.41414 0.19321 0.7863 0.0621 1.1437-0.15132 0.4089-0.23676 0.7114-0.26232 0.93143l-5e-3 5e-3 -0.0297 0.76933v7e-3c0 0.29005-0.0337 0.51079-0.0914 0.66615-0.19477 0.34035-0.46422 0.53355-0.84593 0.60131-0.39648 0.0701-0.75478 7e-3 -1.1024-0.18857-0.37663-0.21446-0.65931-0.58509-0.84302-1.1496-0.18147-0.55766-0.19158-1.2112-0.0233-1.9631 0.0768-0.282 0.17768-0.53256 0.30066-0.74869 0.19358-0.34292 0.42715-0.61846 0.69855-0.83711 0.2686-0.21446 0.51038-0.30687 0.73102-0.30361zm-35.029 0.8607c0.61422 0.14042 1.0723 0.49785 1.4089 1.1083 0.339 0.6113 0.39997 1.188 0.19458 1.7744-0.19982 0.57569-0.71475 1.1111-1.5799 1.5917-0.8767 0.48637-1.6185 0.64229-2.2344 0.50405-0.6278-0.14104-1.083-0.49248-1.409-1.0818-0.32562-0.58693-0.3797-1.1647-0.165-1.7804 0.20891-0.60267 0.72018-1.1443 1.574-1.6182 0.86865-0.48238 1.6053-0.63433 2.2106-0.49812zm-132.73 1.2586-1.0375 1.8747 7.8907 4.3742 0.15332 0.0855 1.0405-1.8746zm-1.8805 3.3898-0.9727 1.7538 4.8046 2.6618-6.4375 0.28593-0.9727 1.7568 7.8935 4.3741 0.15332 0.0855 0.9727-1.7568-4.6985-2.5998 6.3079-0.30065 0.99627-1.8039zm140.23 0.54531-7.876 4.3741-0.15329 0.0855 1.0375 1.8717 3.2276-1.7892 0.0856 0.16217c0.19501 0.35438 0.3055 0.62352 0.33311 0.78404 0.0286 0.16439 0.0145 0.35083-0.0531 0.56296v2e-3c-0.0623 0.20249-0.29112 0.69268-0.66619 1.4267l-1.1083 2.1428 1.235 2.2283 1.1348-2.0603v-5e-3c0.39553-0.70656 0.65594-1.2393 0.77816-1.6123 0.0901-0.28029 0.12195-0.61117 0.1503-0.94324 0.42573 0.47291 0.87311 0.87754 1.3883 0.99627 0.6091 0.1408 1.233 0.0348 1.8422-0.30355 0.48209-0.26765 0.8491-0.63289 1.0965-1.0847 0.24538-0.45191 0.33623-0.93443 0.26231-1.4237-0.0767-0.49111-0.34993-1.1371-0.81353-1.9749zm-0.57181 2.7708 0.58361 1.0612c0.3484 0.63073 0.55669 1.0314 0.5954 1.1318 0.0882 0.24645 0.092 0.45256 0.0233 0.63667-0.0663 0.18332-0.20226 0.33611-0.43622 0.4657-0.20786 0.11572-0.39334 0.15779-0.56595 0.14147h-5e-3c-0.17504-0.0141-0.31985-0.0831-0.4628-0.21224-0.11266-0.10295-0.42504-0.56263-0.8371-1.3087l-0.5542-1.0022zm-166.05 2.927c0.20306 5e-3 0.38798 0.0405 0.5571 0.10314l0.55116 0.18859 0.0063 2e-3c0.28285 0.0654 0.47006 0.20277 0.59838 0.43036 0.12076 0.2192 0.14345 0.42841 0.07363 0.67793-0.07044 0.24378-0.21344 0.41799-0.45391 0.55413l-3.204 1.7862-1.2173-2.1812 2.5497-1.4237c0.17745-0.0976 0.35433-0.14368 0.53942-0.13842zm21.935 1.7832-1.0346 1.8747 4.4331 2.4611c0.60795 0.33797 1.0274 0.60063 1.2498 0.77816 0.20523 0.16701 0.33077 0.38227 0.38319 0.66912 0.04678 0.26739-0.02795 0.61168-0.25941 1.0287-0.2269 0.40993-0.48683 0.66338-0.77227 0.78698-0.2945 0.12761-0.58302 0.14067-0.89899 0.0411-0.18229-0.0589-0.63319-0.27413-1.294-0.64257l-4.3417-2.411-0.95206 1.7185-0.0855 0.15331 4.28 2.3786c0.8714 0.48432 1.5644 0.79745 2.0869 0.94911 0.36647 0.1047 0.76029 0.11629 1.1761 0.0445h4e-3c0.42688-0.0759 0.83814-0.26713 1.238-0.56595 0.41341-0.31279 0.81414-0.84052 1.2291-1.5888 0.34532-0.62285 0.55413-1.1802 0.61014-1.6801 0.05647-0.48609 8e-3 -0.93657-0.14145-1.3382-0.1479-0.40252-0.40378-0.75939-0.75752-1.0729-0.36025-0.31735-0.99658-0.72129-1.9307-1.2409zm149.1 0.43921-7.8935 4.3742-0.15332 0.0856 1.0405 1.8717 2.9151-1.6182 0.48044 0.86366c0.39528 0.71152 0.73221 1.2365 1.0257 1.5828l3e-3 5e-3c0.22851 0.26117 0.52028 0.477 0.86954 0.64848 0.35931 0.17622 0.76231 0.25696 1.2056 0.25056 0.45375-8e-3 0.93135-0.15374 1.4266-0.42739 0.64055-0.35587 1.0912-0.81391 1.3323-1.3677 0.23649-0.54548 0.29079-1.103 0.15029-1.6477-0.094-0.37857-0.40189-1.012-0.93146-1.966zm-0.57183 2.7648 0.33015 0.60132c0.31011 0.55818 0.49811 0.94394 0.55411 1.1171v5e-3c0.083 0.24446 0.0817 0.47069 3e-3 0.70154-0.0779 0.22491-0.23095 0.39875-0.48341 0.53942-0.20392 0.11268-0.39836 0.15737-0.6013 0.13862v-5e-3c-0.20336-0.0182-0.38353-0.0933-0.55414-0.2358-0.15054-0.12266-0.42705-0.50416-0.76343-1.1112l-0.38906-0.69859zm2.641 5.7036c-0.69593 0.0632-1.4411 0.32215-2.2432 0.76932-1.2577 0.69984-2.0732 1.6162-2.414 2.7354-0.34037 1.1176-0.17267 2.2843 0.48042 3.4664 0.64529 1.1706 1.5397 1.9251 2.6676 2.2255 1.1287 0.30112 2.3444 0.0848 3.6196-0.62486 1.2853-0.71569 2.1182-1.6427 2.4611-2.7708 0.33985-1.1245 0.1787-2.2935-0.46868-3.4662-0.35682-0.64765-0.77817-1.1656-1.2674-1.5504-0.37213-0.29556-0.81367-0.51221-1.3146-0.64846-0.50045-0.13601-1.0043-0.17949-1.515-0.13557zm1.067 2.1577c0.61201 0.14036 1.0692 0.49738 1.406 1.1083 0.33716 0.61144 0.39522 1.1879 0.19158 1.7745-0.20001 0.57601-0.7109 1.1111-1.574 1.5917-0.87046 0.48613-1.6112 0.64213-2.2225 0.50405-0.62365-0.1408-1.0822-0.48889-1.406-1.0759-0.32562-0.58885-0.37799-1.1701-0.16502-1.7862 0.20913-0.60329 0.71941-1.1444 1.5711-1.6182 0.86461-0.48221 1.5956-0.63426 2.199-0.49813zm5.6123 5.1907-7.876 4.3741-0.1533 0.0884 1.0375 1.8688 3.2246-1.7862 0.0884 0.15919c0.19496 0.35439 0.30549 0.62652 0.33304 0.787 0.0286 0.16343 8e-3 0.35199-0.0557 0.56297-0.0646 0.20449-0.28822 0.69561-0.66321 1.4296l-1.1083 2.1428 1.2292 2.2283 6e-3 -0.0144 0.92262 1.6683 2.1193-0.33603 1.6035 2.8974-1.3913 1.6418 0.99332 1.798 0.12673 0.22399 6.2548-7.6842-1.0287-1.8629-9.394 1.2793 0.92553-1.6713v-3e-3c0.39549-0.70653 0.65594-1.2393 0.77816-1.6123 0.0903-0.28102 0.12239-0.61202 0.15029-0.94617 0.42773 0.47513 0.87029 0.87712 1.3854 0.99627 0.60908 0.14078 1.2359 0.0377 1.8451-0.30066 0.4821-0.26758 0.84909-0.6329 1.0965-1.0847 0.24544-0.45194 0.33636-0.93331 0.26238-1.4208-0.0748-0.49434-0.3492-1.1433-0.8106-1.9808zm-160.28 0.72215c-0.40971 0.0182-0.9102 0.0948-1.5062 0.22695-0.29552 0.0665-0.52316 0.12093-0.68679 0.16216-0.0819 0.0206-0.1495 0.0348-0.20043 0.0503-0.05076 0.0144-0.07784 0.02-0.1268 0.0475l-0.06481 0.041-0.45688 1.8393 1.8452 0.52172 0.06195-0.14151c0.26483-0.59293 0.64564-1.0207 1.1555-1.3058 0.17585-0.0985 0.36682-0.18254 0.57183-0.2476 0.52664-0.16861 1.0533-0.16941 1.5976 0l0.17106 0.0559 0.25935-0.97859-0.17687-0.0384c-0.94389-0.20954-1.7555-0.28867-2.4436-0.23287zm159.7 2.0486 0.58659 1.0611h3e-3c0.35119 0.63211 0.55083 1.0328 0.59247 1.1378 0.0834 0.24299 0.0867 0.44834 0.0206 0.63078-0.0687 0.18454-0.20229 0.3391-0.43625 0.46871-0.20826 0.11584-0.39321 0.15776-0.56593 0.14136-0.17746-0.0143-0.32825-0.0836-0.46869-0.21222-0.11311-0.10224-0.419-0.56144-0.8312-1.3058l-0.56004-1.0051zm-158.53 2.1281-9.0079 5.0227-0.88429-1.5829-1.6978 0.94618-0.15332 0.0884 1.63 2.9181c-0.1787 0.0553-0.35815 0.1102-0.51289 0.17689-0.20716 0.0892-0.41906 0.19238-0.63079 0.30948-0.16057 0.0898-0.32222 0.23449-0.4834 0.34782l0.41559-1.4561-1.7774-0.45689-0.17106-0.0411-0.45391 1.8452 1.5386 0.43327c-0.04904 0.0411-0.09799 0.0626-0.14727 0.10598v5e-3c-0.36214 0.31919-0.66864 0.62912-0.91964 0.94028v3e-3c-0.25559 0.32164-0.43771 0.68008-0.53645 1.0729-0.25154 0.90295-0.21892 1.7523 0.11487 2.5173l0.08249 0.18857 1.7538-1.1436-8e-3 -0.106c-0.03023-0.34856 0.0011-0.76691 0.09137-1.2468 0.10159-0.51284 0.26004-0.9503 0.47753-1.3058 0.12315-0.20408 0.3448-0.40226 0.5276-0.60131-0.11288 0.48352-0.23283 0.96226-0.27412 1.4708v3e-3l-0.09138 1.3441v8e-3c-0.0023 0.29239 0.04678 0.61669 0.14146 0.97861 0.13079 0.57124 0.35409 1.1454 0.675 1.7214l0.10324 0.17988 2.3316-1.8629-0.10604-0.13558c-0.26278-0.33589-0.48699-0.66339-0.6691-0.99036-0.21549-0.38628-0.38472-0.82179-0.50405-1.291-0.15697-0.61688-0.22245-1.1806-0.24464-1.7214l0.18572 0.33014-4e-3 3e-3 5.4559 9.7771 0.17106 0.30355 2.3786 4.2562-0.0023 4e-3 5.3175 9.5355 0.08249 0.14441 0.08553 0.15333 4.3918 7.87 0.16803 0.30361 2.3758 4.2534-0.0063 5e-3 6.523 11.681 1.8511-1.0346-2.5467-4.5629 1.4826-0.82533-8e-3 0.18572v4e-3c-8e-3 0.35707 0.01826 0.72723 0.07363 1.1024 0.05876 0.38457 0.16558 0.7133 0.31833 0.9904l0.0063 0.0115 0.23876 0.3242 8e-3 8e-3c0.41667 0.4315 0.89882 0.71353 1.4414 0.84006 0.55128 0.13022 1.0988 0.0455 1.6064-0.2358 0.1783-0.10026 0.35022-0.23397 0.51877-0.40675 0.16678-0.17106 0.32038-0.36397 0.45688-0.57772v-5e-3c0.27539-0.41468 0.48717-0.84803 0.6249-1.3028 0.13643-0.44871 0.18435-0.80955 0.1179-1.1024-0.03194-0.17064-0.11026-0.35995-0.23283-0.57771-0.36893-0.66221-0.89543-1.0432-1.4767-1.3149l1.7214-0.96092 0.98743-3.4546-5.176 2.8768c-0.43857-0.0694-0.83659-0.22125-1.1849-0.48927-0.2289-0.18333-0.4064-0.33866-0.53354-0.45688-0.1276-0.11877-0.20511-0.21459-0.21515-0.23291v-3e-3c-0.06239-0.1083-0.09114-0.21697-0.09441-0.33898v-3e-3c-0.01204-0.25992 0.0956-0.44161 0.40674-0.61608 0.18851-0.10361 0.38318-0.18349 0.5836-0.22986 0.20323-0.0474 0.42762-0.069 0.67205-0.071l1.5357 8e-3 0.64552-2.5467-0.21812-0.0115c-0.54762-0.0269-1.0459 0.016-1.5003 0.13267-0.45403 0.11557-0.94401 0.32392-1.4767 0.61899-0.40275 0.22535-0.765 0.50402-1.0788 0.82827-0.31474 0.32517-0.57273 0.68144-0.77227 1.07-0.19621 0.37619-0.34132 0.69869-0.43035 0.97863-0.09415 0.2958-0.10404 0.61556-0.04107 0.9491v8e-3c0.09482 0.39516 0.19963 0.69276 0.31833 0.90489 0.19861 0.35586 0.55653 0.62034 0.94616 0.86365l-1.5121 0.84004-2.5615-4.5834 8e-3 -5e-3 -0.71331-1.2734 6.7204-3.7494 1.1643-3.2896-9.0079 5.0227-0.71331-1.2763h0.0023l-1.7803-3.1922 1.686-0.93732c-0.03022 0.0115-0.02338 9.6e-4 0.01421 0.0115 0.03822 9e-3 0.09959 0.0332 0.17688 0.0737 0.15435 0.0813 0.37372 0.22212 0.64551 0.42153v5e-3l1.0906 0.76932 8e-3 5e-3c0.92052 0.53771 2.0279 0.44023 3.2511-0.24172 0.55972-0.31286 1.0262-0.79485 1.3971-1.4325 0.36978-0.64138 0.5759-1.3445 0.60721-2.0957 0.03137-0.75271-0.12577-1.4432-0.4716-2.0633-0.25707-0.46357-0.60984-0.88052-1.0552-1.2468-0.44524-0.36611-0.92746-0.63735-1.4443-0.81941-0.51951-0.1823-1.0501-0.26014-1.5917-0.23288-0.54632 0.0276-1.0551 0.17283-1.521 0.43331-0.40007 0.22109-0.72397 0.48838-0.96385 0.80172-0.24008 0.31081-0.41467 0.66831-0.53057 1.0729-0.06886 0.22783-0.10204 0.47142-0.10324 0.73691-0.01421 0.27981-0.0063 0.58318 0.01826 0.90194l-0.0063-0.0115 0.01825 0.67795c-2.45e-4 9.7e-4 2.17e-4 5e-3 0 5e-3 -0.0079 0.0612-0.02166 0.10831-0.02967 0.12962l-2.2078 1.2292-1.7744-3.1805-0.16803-0.29769-0.72804-1.3058 2.6764-1.4914 0.47747 0.8489c0.08391 0.14727 0.19758 0.26379 0.34189 0.3213 0.14426 0.0571 0.30596 0.0508 0.46276-5e-3l0.01421-5e-3 0.01825-5e-3c0.34982-0.19861 0.59342-0.45408 0.70154-0.76635h0.0063l1.0316-3.3485c0.13946-0.36358 0.2042-0.64203 0.07666-0.86955l-0.01204-0.0207-0.02054-0.0182c-0.08915-0.0892-0.21583-0.14008-0.34189-0.13847-0.12616 9.8e-4 -0.24749 0.0474-0.37434 0.11788l-1.3706 0.76343-1.5475-2.7825 2.1577-1.2026 0.91081-3.1479-8.9724 5.002-0.82533-1.4826h-0.0023l-0.53645-0.96092 6.7204-3.7493 1.1643-3.2896-9.0079 5.0227-0.88427-1.5858-4e-3 5e-3 -3.3956-6.0956 1.3824-0.76933 1.6418 2.9505c0.19923 0.35633 0.41689 0.62706 0.65731 0.81353 0.26865 0.20592 0.62964 0.22708 1.0169 0.097l8e-3 -3e-3 0.36847-0.15029 8e-3 -5e-3c0.38251-0.21252 0.66333-0.56713 0.85774-1.0228 4e-3 -5e-3 0.0063-8e-3 8e-3 -0.0115 0.29261-0.29515 0.53565-0.65218 0.73983-1.0729 0.20209-0.41861 0.3493-0.82369 0.43332-1.2144 0.08334-0.38817 0.11893-0.65588-0.0023-0.8725l-0.0063-0.0115-8e-3 -8e-3c-0.15817-0.21498-0.37229-0.46525-0.6514-0.75457-0.17283-0.1807-0.29518-0.3179-0.36551-0.40675-0.07062-0.0888-0.13964-0.19334-0.20928-0.31536-0.12418-0.22144-0.18714-0.46846-0.19456-0.75166-8e-3 -0.26642 0.05303-0.39242 0.19456-0.47163 0.30299-0.16845 0.66947-0.14934 1.1555 0.10016h0.0063v5e-3c0.24618 0.11731 0.47844 0.27243 0.69562 0.46865 0.21355 0.19277 0.42784 0.43018 0.63373 0.70742 0.30122 0.54296 0.39488 1.1977 0.26528 1.9867-0.13038 0.8066-0.35467 1.559-0.67204 2.2607-0.16096 0.3561-0.29152 0.62809-0.39202 0.81353-0.0502 0.0928-0.09498 0.16621-0.12674 0.21223-0.03194 0.0455-0.06161 0.0647-0.02967 0.0474l-0.28297 0.15611 1.1731 0.6308 0.0825-0.0475c0.16518-0.0916 0.26277-0.25584 0.42442-0.52464 0.16159-0.2689 0.3578-0.64254 0.58952-1.1201 0.46868-0.96811 0.79411-2.0205 0.97564-3.1628v-3e-3c0.1819-1.1573 0.02795-2.1951-0.4716-3.0891l-0.0063-8e-3 -0.0023-8e-3c-0.65757-0.9067-1.2905-1.5155-1.9189-1.8157-0.33424-0.15951-0.68664-0.23778-1.0493-0.22694-0.36242 9e-3 -0.71826 0.11469-1.067 0.30948-0.5336 0.29735-0.94737 0.71736-1.2262 1.2439-0.15434 0.2706-0.26466 0.54198-0.32718 0.81355-0.05994 0.26495-0.08813 0.55162-0.07968 0.86068 0.01026 0.58257 0.15714 1.1289 0.43624 1.63l0.70152 1.2527c0.09017 0.1608 0.11271 0.30147 0.08249 0.44509-0.02854 0.13528-0.12132 0.28154-0.27116 0.43623-0.11932 0.0607-0.20659 0.076-0.30652 0.0269-0.10763-0.0531-0.24139-0.19058-0.37143-0.42449l-2.134-3.82-3.4369 1.9189-0.80468-1.4444h0.0023l-0.71333-1.2728 6.7204-3.7494zm162.89 7.54-1.801 2.1104-0.93143-1.6772zm4.3182 2.14-1.6123 0.89309 1.2704 2.2903-6.2813 3.4811-0.15331 0.0883 1.0405 1.8688 6.4346-3.5636 1.2616 2.2842 1.6123-0.89606zm4.0292 7.2687-7.8935 4.3742-0.15332 0.0855 3.431 6.1869 1.6153-0.89604-2.3905-4.3124 1.7921-0.99335 2.1428 3.8701 1.6153-0.89606-2.1458-3.8673 1.4148-0.78405 2.302 4.1621 1.6153-0.89609zm-25.235 4.9225c-0.32938-0.0235-0.67146 0.0245-1.0169 0.14727h-4e-3c-0.53559 0.19574-0.95239 0.54598-1.2291 1.0346v5e-3c-0.0654 0.1179-0.12194 0.2312-0.16216 0.33603-0.0206 0.0571-0.0378 0.12514-0.0557 0.18857l-5.8479-0.0182 0.14727 1.1053 5.571 0.0621c-0.0637 1.668 0.69133 3.0197 2.308 3.9351 0.74525 0.41998 1.437 0.64611 2.075 0.66322 0.62949 0.0182 1.2097-0.13658 1.7214-0.46278 0.26579-0.16159 0.51329-0.35916 0.74278-0.58655 0.22509-0.22507 0.45511-0.49241 0.6868-0.8047l5e-3 -8e-3c0.0569-0.0691 0.1118-0.14591 0.16804-0.24171v-5e-3c0.0519-0.0937 0.1086-0.18813 0.165-0.28886 0.29336-0.51699 0.55075-1.0979 0.78111-1.742 0.11325-0.3184 0.19964-0.56935 0.25642-0.75751 0.0563-0.1881 0.0961-0.28691 0.0914-0.40971l-8e-3 -0.15616-2.5231-0.15332 0.0324 0.21222c0.0234 0.15013 0.0202 0.47045-0.0182 0.92555-0.0353 0.44604-0.11368 0.83537-0.2358 1.1672v5e-3c-0.23806 0.68232-0.4299 1.1485-0.56004 1.3795-0.32422 0.57259-0.68456 0.80354-1.126 0.78403h-3e-3c-0.4215-0.0388-0.77195-0.13919-1.0582-0.30066-0.38502-0.21782-0.68911-0.52834-0.92257-0.94025-0.23643-0.41867-0.38325-0.82993-0.43623-1.235-0.0536-0.40822-0.0144-0.69151 0.0825-0.86071l3e-3 -3e-3c0.0221-0.0394 0.18914-0.14829 0.52463-0.20928 0.21625-0.0438 0.37345-0.0731 0.46573-0.0884h5e-3c0.13383-0.025 0.24792-0.0536 0.34781-0.0884 0.23839-0.0803 0.44531-0.27024 0.64848-0.54825l6e-3 -8e-3 3e-3 -8e-3c0.17201-0.30099 0.17239-0.65742 5e-3 -0.99039-0.1604-0.32095-0.39661-0.56861-0.6927-0.73687v-5e-3c-0.30206-0.17043-0.6197-0.26546-0.9491-0.28884zm-168.6 0.0269-0.96977 1.7538 4.8015 2.6618-6.4375 0.28592-0.96976 1.7568 7.8907 4.3741 0.15332 0.0855 0.97564-1.7568-4.7013-2.5998 6.3079-0.30067 0.99924-1.8039zm197.88 2.3551-8.044 4.4597 1.7126 3.0892c0.32335 0.58528 0.64062 1.0292 0.96091 1.3323 0.41935 0.39226 0.84728 0.65575 1.291 0.78998h5e-3c0.5772 0.17405 1.2118 0.2014 1.9041 0.0767 0.57188-0.10066 1.183-0.33364 1.8334-0.69269h3e-3c0.73617-0.40896 1.3121-0.84361 1.7302-1.3057 0.41501-0.45877 0.71301-0.95862 0.88427-1.4974 0.172-0.53957 0.19374-1.0951 0.0709-1.6507-0.0951-0.41974-0.32347-0.94605-0.68382-1.5976l-1.58-2.8504zm-170 0.071 1.5475 2.7825-2.6764 1.4944-1.5534-2.7824zm169.43 2.7 0.30064 0.54527c0.34995 0.62987 0.55953 1.071 0.62195 1.2822 0.0892 0.30098 0.0981 0.57428 0.0324 0.82826-0.0654 0.25349-0.21692 0.51331-0.46573 0.7811-0.23996 0.25843-0.65344 0.56326-1.2439 0.89021-0.5888 0.3251-1.0792 0.52358-1.4561 0.60422v5e-3h-3e-3c-0.38582 0.0845-0.68043 0.0812-0.87543 0.0144v-4e-3c-0.21479-0.0721-0.41416-0.2037-0.6013-0.40384-0.13385-0.14255-0.33362-0.43485-0.57183-0.86364l-0.5571-1.011zm-34.868 0.55411c-0.59569-0.0234-1.184 0.11469-1.7538 0.41262-0.61208 0.31343-1.1031 0.79284-1.462 1.4266-0.31395 0.55208-0.48153 1.1709-0.51291 1.8393-0.0312 0.66962 0.0868 1.328 0.35369 1.9719v3e-3c0.38714 0.87048 1.0247 1.5594 1.8865 2.0486 0.63796 0.35862 1.3119 0.55556 2.0221 0.58066 0.71632 0.0252 1.3811-0.1523 1.9749-0.53057l4e-3 -4e-3c0.46207-0.31018 0.83468-0.70994 1.1054-1.1879 0.15013-0.26654 0.26369-0.55532 0.34781-0.86658 0.0833-0.31024 0.14023-0.61814 0.1592-0.9285v-3e-3c0.0269-0.67682-0.0712-1.3228-0.29477-1.9307-0.22621-0.60945-0.57091-1.1343-1.0375-1.5652-0.3164-0.28744-0.64677-0.52694-0.98744-0.71923-0.60418-0.34211-1.2082-0.52488-1.8039-0.54826zm-0.0914 2.3492c0.67904-0.10845 1.3361 0.02 2.0014 0.3979 0.40971 0.2314 0.68072 0.48045 0.82827 0.73689 0.14751 0.25644 0.18308 0.51673 0.10316 0.82536v0.0115l-3e-3 6e-3c-5e-3 0.0394-0.0596 0.17387-0.16216 0.3537-0.33185 0.58801-1.0392 0.92569-2.2018 0.99039-0.86856 0.059-1.5287-0.0557-1.9867-0.31542-0.36037-0.20228-0.56062-0.45985-0.63666-0.80469v-9e-3c-0.0929-0.3137-0.0519-0.62389 0.14155-0.96679 0.16883-0.29733 0.42393-0.55527 0.78402-0.77817 0.36025-0.22227 0.73888-0.37143 1.1319-0.44804zm-126.83 1.7714c0.23517-0.0205 0.49515 4e-3 0.78404 0.0737 0.56804 0.13371 1.1307 0.46135 1.6831 0.9904 0.20426 0.21383 0.36653 0.43042 0.48928 0.65141 0.19154 0.34298 0.30858 0.69007 0.35375 1.0346 0.04449 0.33886-0.0063 0.59144-0.12091 0.77811-0.13182 0.20861-0.28285 0.3585-0.46276 0.45987-0.34155 0.18995-0.73056 0.25571-1.1849 0.19153-0.44444-0.0657-0.7695-0.24458-1.0081-0.54233-0.26974-0.34127-0.47918-0.57146-0.6573-0.7074l-4e-3 -3e-3 -0.64256-0.43035h-4e-3v-4e-3c-0.24549-0.14991-0.41559-0.29358-0.52174-0.42447-0.18794-0.34543-0.2176-0.67243-0.07666-1.0346 0.14567-0.37417 0.38552-0.64797 0.73689-0.843 0.18914-0.10545 0.39853-0.17123 0.63372-0.19153zm-41.196 0.44497-1.0346 1.8688 6.3167 7.5812 1.0995-1.9896-1.4031-1.6153 1.6005-2.8915 2.1341 0.3066 0.99333-1.7922 0.1268-0.22992zm1.8776 2.2726 2.7442 0.40972-0.93436 1.6772zm-4.0558 1.6625-1.1083 1.9925 4.4184 4.7692-6.4286-1.1378-1.1201 2.0191 9.5206 1.5592 0.12377 0.0206 1.0523-1.9012zm209.93 0.3537-1.6772 0.92554 0.17987 0.165c0.58167 0.53496 1.2515 0.88028 1.9572 1.1525l-5.4883 3.0449 0.90197 1.6359 0.0883 0.15332 8.0881-4.4832-0.81054-1.4679-0.12094 0.0206c-0.53011 0.0867-1.0787 0.0115-1.6595-0.2358-0.59103-0.25216-1.0483-0.52868-1.3677-0.82532zm-48.12 0.81057c-0.51534 0.0633-0.94716 0.30914-1.2645 0.71628l-0.0445 0.059 0.0944 0.71332 0.17105-0.0182c0.39524-0.045 0.69402-0.0353 0.88134 0.0115 0.32911 0.0813 0.60879 0.18874 0.84595 0.32421h5e-3l7.0802 4.0087c0.7112 0.40281 1.4019 0.51649 2.0338 0.31247 0.6314-0.20684 1.1691-0.72448 1.6153-1.5151 0.29579-0.52229 0.44672-1.0503 0.45095-1.5799 3e-3 -0.52345-0.12282-1.0133-0.37731-1.4561-0.254-0.44399-0.60534-0.79509-1.0464-1.0434-0.30202-0.17104-0.60885-0.2894-0.91967-0.35369-0.30954-0.064-0.6239-0.0733-0.93437-0.0353-0.62382 0.0638-1.2152 0.31183-1.7715 0.72803-0.42386 0.31263-0.76572 0.6818-1.0081 1.1112-0.0843 0.15011-0.1519 0.29086-0.20631 0.42152-0.0256 0.0628-0.0474 0.13197-0.0708 0.19741l-4.1383-2.3434c-0.41527-0.2338-0.89076-0.32158-1.3972-0.25941zm8.1647 1.4708c0.18135-5e-3 0.40397 0.0541 0.66322 0.20044 0.25287 0.14312 0.48231 0.34245 0.69562 0.60717 0.20357 0.25087 0.3274 0.55179 0.36846 0.91375 0.0411 0.36128-0.0115 0.64874-0.14152 0.87839-0.0513 0.0892-0.11326 0.16544-0.1916 0.22994-0.29083 0.21958-0.64298 0.20955-1.1407-0.068l-0.45094-0.30363c-0.39813-0.32859-0.63586-0.64698-0.731-0.94617-0.0952-0.29918-0.065-0.58376 0.1121-0.89606 0.0747-0.13368 0.18833-0.26698 0.33601-0.39789l8e-3 -8e-3c0.14342-0.1434 0.29045-0.20721 0.4716-0.21223zm43.514 3.3308c-0.40428 0.0614-0.8127 0.2046-1.2203 0.43037-0.78232 0.43508-1.3108 1.0337-1.5504 1.7803-0.23759 0.74046-0.17424 1.4545 0.18573 2.1016 0.26079 0.4708 0.72949 0.69231 1.2114 0.88428-0.70121 0.29578-1.3265 0.5038-1.5976 0.46569-0.36269-0.0491-0.58245-0.19136-0.7251-0.44803-0.1163-0.21151-0.13906-0.39516-0.0914-0.57183 0.046-0.17386 0.1803-0.35123 0.43331-0.53353l0.14151-0.10317-1.0582-1.4914-0.10598-0.15031-0.14444 0.11486c-0.60755 0.4802-0.98814 1.0218-1.1171 1.6212-0.12631 0.59709-8e-3 1.2201 0.34189 1.8511 0.48596 0.87727 1.2314 1.4257 2.1959 1.6094 0.98129 0.18713 2.1812-0.14224 3.6168-0.93733h3e-3c1.4109-0.78291 2.3076-1.6054 2.6617-2.5054 0.34634-0.8829 0.28851-1.7638-0.16802-2.5879-0.41732-0.75453-1.0339-1.2519-1.8157-1.465-0.39216-0.10589-0.7924-0.12616-1.1967-0.0648zm-49.186 1.2999c-0.32939-0.0233-0.66858 0.0245-1.014 0.14728h-5e-3c-0.53558 0.19582-0.95136 0.54558-1.2262 1.0346-0.0682 0.11904-0.12499 0.23411-0.16501 0.33893-0.0212 0.0579-0.0405 0.12673-0.059 0.1916l-5.842-0.0206 0.1444 1.1054 5.5738 0.0622c-0.0637 1.668 0.68838 3.0197 2.305 3.9351 0.74527 0.41997 1.4371 0.64611 2.075 0.66321 0.62947 0.02 1.2097-0.13659 1.7214-0.46274 0.26583-0.1616 0.5133-0.35921 0.74281-0.58661 0.22473-0.22467 0.45772-0.48987 0.68974-0.80467l5e-3 -8e-3c0.0557-0.068 0.11092-0.1483 0.16803-0.24759 0.0519-0.0937 0.10904-0.19097 0.165-0.28884 0.29326-0.51884 0.55374-1.0971 0.78408-1.7391 0.11426-0.31946 0.20254-0.57182 0.25933-0.76047 0.0286-0.0944 0.0475-0.17085 0.0621-0.2358 0.0144-0.0649 0.0245-0.11353 0.0206-0.17686l-8e-3 -0.15334-2.5201-0.15331 0.0324 0.21223c0.0234 0.15013 0.0234 0.47046-0.0144 0.92556-0.0354 0.4461-0.11396 0.83557-0.2358 1.1672v5e-3c-0.23814 0.68037-0.4328 1.1485-0.56296 1.3794-0.32421 0.57261-0.68199 0.80243-1.123 0.78111h-5e-3c-0.42107-0.0372-0.77197-0.13617-1.0582-0.29767-0.38502-0.21792-0.6891-0.52841-0.92257-0.94029-0.23624-0.41827-0.38026-0.82556-0.43327-1.2292-0.0553-0.41004-0.0182-0.69738 0.0795-0.86658l3e-3 -3e-3c0.0221-0.0394 0.18635-0.14831 0.52167-0.20928 0.21858-0.0439 0.37674-0.0731 0.46869-0.0885h3e-3c0.13383-0.025 0.25091-0.0536 0.3508-0.0883 0.23836-0.0804 0.44642-0.27068 0.65141-0.54825l3e-3 -8e-3 8e-3 -8e-3c0.1694-0.30081 0.1664-0.65743 0-0.99037-0.16056-0.32097-0.39659-0.5687-0.69268-0.7369v-5e-3c-0.30209-0.17042-0.61972-0.26547-0.94911-0.28889zm50.042 0.60129c0.27451 0.0519 0.45191 0.18212 0.58067 0.41564 0.13386 0.24151 0.1437 0.49738 0.0144 0.82828-0.12195 0.31543-0.39574 0.60727-0.84889 0.85774-0.41189 0.22884-0.75199 0.29747-1.0287 0.23875-0.2909-0.0618-0.48535-0.20235-0.62196-0.44802-0.14035-0.25347-0.15635-0.4956-0.0474-0.7811 0.10275-0.27046 0.37764-0.54892 0.85476-0.81354 0.47421-0.26322 0.84413-0.34594 1.0965-0.29769zm-218.93 0.38906-1.0346 1.8688 4.4331 2.4613c0.60795 0.33794 1.0274 0.60061 1.2498 0.77815 0.20522 0.16701 0.3278 0.38226 0.38022 0.6691 0.04678 0.26672-0.02965 0.61112-0.25941 1.0287-0.22678 0.40975-0.48392 0.66568-0.76635 0.78698h-2e-3c-0.29449 0.1273-0.58304 0.14065-0.89902 0.0411-0.18349-0.059-0.63304-0.27408-1.294-0.64259l-4.3417-2.411-0.95208 1.7184-0.0855 0.15332 4.2828 2.3786c0.87128 0.48221 1.5615 0.79744 2.0838 0.9491 0.36647 0.10472 0.75735 0.11632 1.1731 0.0445h0.0063c0.42688-0.0759 0.83815-0.26712 1.238-0.56595 0.41398-0.31101 0.81414-0.84054 1.2291-1.5888 0.34526-0.62468 0.55413-1.1802 0.61014-1.6801 0.0559-0.4861 8e-3 -0.93658-0.14146-1.3382-0.1479-0.40252-0.40668-0.7594-0.76047-1.0729-0.36026-0.31734-0.99365-0.72131-1.9277-1.2409zm223.5 3.9055-4.7279 1.5799 0.58363 1.5534 0.0914 0.0182c0.52344 0.12237 0.86725 0.37035 1.0759 0.75163 0.16941 0.30636 0.19679 0.59081 0.0914 0.8931-0.10181 0.29188-0.36139 0.56658-0.81353 0.81943-0.4874 0.27164-0.88019 0.35782-1.1938 0.29478-0.32969-0.0662-0.54773-0.21948-0.69562-0.48927-0.12876-0.23488-0.15976-0.4753-0.0882-0.75458 0.0676-0.2723 0.23438-0.51049 0.51877-0.7192l0.1386-0.10016-1.0641-1.5357-0.10599-0.1503-0.14726 0.10599c-0.6258 0.4699-1.0181 1.0718-1.1614 1.7774-0.14165 0.70822-3e-3 1.4422 0.40683 2.184 0.51646 0.93432 1.3036 1.4921 2.3108 1.6212 0.73775 0.097 1.4508-0.048 2.1164-0.41856 0.79335-0.44169 1.3231-1.0532 1.5622-1.8216 0.23787-0.76447 0.16441-1.5186-0.21809-2.2136-0.15554-0.28171-0.40708-0.4952-0.65732-0.71036l1.0523-0.36255 1.5563 2.8207 1.6831-0.93732zm-168.28 1.9601c0.34816 0.0783 0.74904 0.26465 1.2026 0.60721 0.47719 0.36036 0.77297 0.65566 0.87247 0.83414 0.10244 0.18491 0.10164 0.30186 0.02339 0.43328-0.0502 0.0831-0.10564 0.13819-0.1799 0.1799-0.26637 0.14931-0.59804 0.11281-1.0582-0.17689-0.22616-0.14108-0.48614-0.44142-0.74572-0.90784v-5e-3c-0.22964-0.40864-0.29894-0.69124-0.2889-0.87248zm-59.586 2.0162-1.0375 1.8747 3.0476 1.6889-1.518 2.7443-3.0507-1.6919-1.0376 1.8747 7.8937 4.3741 0.15332 0.0884 1.0405-1.8747-3.3837-1.8746 1.518-2.7442 3.3837 1.8746 1.0376-1.8746zm229.23 2.081c-0.40431 0.0622-0.81264 0.20944-1.2203 0.43622-0.78256 0.43318-1.3108 1.0278-1.5504 1.7745-0.23762 0.74045-0.17409 1.4586 0.18571 2.1076 0.2607 0.47066 0.7295 0.69028 1.2115 0.88131-0.70123 0.2958-1.3266 0.50092-1.5976 0.46277-0.36272-0.049-0.58249-0.19138-0.72514-0.44806-0.11658-0.21181-0.13948-0.38931-0.0914-0.56888 0.0465-0.17386 0.18029-0.35421 0.43333-0.53645l0.14154-0.10016-1.0582-1.4944-0.106-0.1503-0.14443 0.11485c-0.60755 0.4802-0.99016 1.0242-1.1171 1.6241-0.12862 0.59742-8e-3 1.2201 0.3419 1.8511 0.48607 0.87748 1.2334 1.4228 2.1959 1.6064 0.98128 0.18712 2.1812-0.13919 3.6168-0.93436h3e-3c1.4109-0.78293 2.3076-1.6084 2.6618-2.5084 0.34628-0.88266 0.28861-1.7606-0.16803-2.5851-0.4193-0.75427-1.0338-1.2549-1.8157-1.4679-0.39214-0.10589-0.79242-0.12703-1.1967-0.0648zm-66.461 1.3883-3.1421 0.87248 8.937 5.0639-0.64551 1.1407-0.28297 0.49812-2.8622 5.0609-1.8363-1.0405c0.91857-0.26688 1.7073-0.70907 2.1665-1.521 0.2013-0.35432 0.34126-0.71954 0.4156-1.0935v-4e-3c0.17105-0.76064 0.22073-1.356 0.12976-1.8068-0.0908-0.46049-0.38764-0.88264-0.86661-1.2734l-5e-3 -5e-3 -0.37139-0.26229-6e-3 -3e-3c-0.87027-0.49269-1.9069-0.51592-3.0626-0.0914-0.96136 0.34885-1.6659 0.9056-2.0927 1.6595-0.12556 0.22165-0.21829 0.61074-0.33602 1.238-0.0575 0.31281-0.10202 0.55467-0.12979 0.73398-5e-3 0.0348-9.5e-4 0.0422-5e-3 0.071l-0.71332-0.40384-3.4576 0.91078 8.9459 5.067-0.90491 1.5946 1.689 0.95795 0.15334 0.0884 4.9961-8.8338 0.28299-0.50108 0.86658-1.5327c0.39396 0.0239 0.76518 0.10788 1.0994 0.29768 0.51876 0.29239 0.87581 0.72091 1.0847 1.3058 0.20489 0.57374 0.14281 1.1372-0.19758 1.7361-0.2041 0.3614-0.59282 0.81722-1.1672 1.3559v3e-3c-0.31835 0.29947-0.71725 0.5227-1.2026 0.6691-0.4983 0.14908-0.97153 0.22616-1.4266 0.2358-0.46299 9e-3 -0.81828-0.0223-1.067-0.0914l-0.13558-0.0384-0.43036 0.77521 0.224 0.0531c0.85778 0.21549 1.6476 0.28045 2.3758 0.18856 0.72817-0.0899 1.4833-0.35887 2.2579-0.80469 0.54467-0.30532 1.0385-0.67855 1.4915-1.1171 0.44988-0.43955 0.81969-0.90368 1.0965-1.3942v-5e-3c0.23078-0.40833 0.35792-0.77317 0.36255-1.1053 0.0244-0.72456-0.0427-1.3421-0.2034-1.8599v-5e-3c-0.096-0.27738-0.22992-0.52555-0.39499-0.74276-0.17043-0.22374-0.38867-0.41395-0.65435-0.563-0.80999-0.45871-1.5074-0.59966-2.1547-0.58658l0.72213-1.2763-1.8422-1.0464-0.76345 1.3529zm67.316 0.51289c0.27454 0.0519 0.45193 0.18213 0.5807 0.4156 0.1344 0.2396 0.14021 0.50182 0.0143 0.83123-0.12396 0.31609-0.39573 0.6043-0.84888 0.85479-0.41188 0.22888-0.752 0.3004-1.0287 0.2417-0.29089-0.0618-0.48145-0.20304-0.61604-0.44802-0.14211-0.25274-0.16098-0.49759-0.0531-0.78405 0.10275-0.26869 0.37902-0.5491 0.85774-0.81354 0.47183-0.263 0.84387-0.34571 1.0935-0.29766zm-233.54 4.8959c-0.38159 8e-3 -0.73728 0.0924-1.0553 0.25349-0.31371 0.16014-0.59314 0.38556-0.82529 0.67794-0.2293 0.2888-0.5065 0.73423-0.84891 1.35l-1.7155 3.098-0.08839 0.15333 8.0499 4.4597 1.5445-2.7883c0.54609-1.0015 0.87708-1.6352 1.0022-1.9307 0.19176-0.46343 0.26991-0.9127 0.22405-1.3411-0.04564-0.42438-0.19838-0.82423-0.45688-1.1938-0.25542-0.36817-0.57662-0.66099-0.95502-0.86954-0.47433-0.26277-0.97781-0.36095-1.4856-0.28594-0.42237 0.0613-0.79733 0.31702-1.1584 0.61311-0.01146-0.34594-0.04564-0.69081-0.20933-0.99922-0.20819-0.39043-0.51221-0.69731-0.90195-0.91375-0.35706-0.19797-0.73374-0.29323-1.1201-0.28296zm165.87 1.2026h5e-3c0.0928-2.1e-4 0.16741 0.02 0.2358 0.0591h4e-3c0.12731 0.0726 0.24254 0.24605 0.31834 0.55999 0.0758 0.31399 0.10631 0.75686 0.0824 1.3205v3e-3c-0.016 0.54122-0.17752 1.092-0.49812 1.6595-0.15212 0.26916-0.29517 0.4649-0.41559 0.58361-0.1205 0.11875-0.2107 0.15172-0.26529 0.1503h-9e-3c-0.12034 5e-3 -0.21285-0.016-0.29477-0.062-0.19138-0.10685-0.2791-0.25792-0.28594-0.52761v-3e-3c-5e-3 -0.13818-5e-3 -0.33686 3e-3 -0.58953 8e-3 -0.2508 0.0264-0.56422 0.0557-0.94026v-5e-3l0.0589-0.61899c9e-3 -0.14064 0.0213-0.26411 0.0384-0.36551v-3e-3c0.0144-0.10056 0.0405-0.22214 0.0708-0.36252 0.0275-0.12166 0.0857-0.2568 0.17385-0.41268 0.16401-0.28953 0.38349-0.42597 0.7281-0.44805zm-166.12 0.92553c0.17511-0.04 0.35706-9e-3 0.56582 0.10599h0.0056c0.21789 0.11948 0.33653 0.26607 0.39186 0.45985 0.05134 0.19215 0.03422 0.41015-0.07073 0.66909-0.05135 0.13197-0.25553 0.52293-0.59246 1.1289l-0.48027 0.86659-1.4767-0.81649 0.41296-0.74279c0.4044-0.73059 0.66267-1.1778 0.74869-1.2999 0.16028-0.21881 0.32284-0.33414 0.49509-0.37139zm3.3956 1.4768h0.0063c0.18532-0.0201 0.37115 0.0229 0.58067 0.13846 0.24909 0.13832 0.39049 0.2953 0.45688 0.48639v5e-3c0.0714 0.20042 0.06981 0.40109-0.0063 0.62489v5e-3c-0.03936 0.12704-0.22314 0.50633-0.53348 1.067l-0.71626 1.2969-1.7715-0.98152 0.61602-1.1113c0.39186-0.70527 0.69656-1.1526 0.84303-1.2822 0.16798-0.15212 0.33807-0.2293 0.52464-0.2476zm237.66 0.46275-9.7802 1.3323 1.1024 1.9867 2.1164-0.33305 1.6035 2.8916-1.3913 1.6477 0.99629 1.7951 0.12381 0.22405 6.2578-7.6814zm-1.8865 2.2519-1.801 2.1104-0.93143-1.6801zm-244.16 0.49811-1.0375 1.8747 7.8907 4.3741 0.15343 0.0882 1.0434-1.8746zm163.52 0.0942-1.8717 0.51876 0.4657 1.7155 0.0473 0.16802 1.8658-0.53353zm-164.42 3.938c-0.51449 0.0302-0.96795 0.20958-1.3441 0.53356-0.3776 0.32498-0.78029 0.89756-1.2438 1.7331l-1.9101 3.4427 7.8907 4.3741 0.15344 0.0855 1.0405-1.8746-3.2334-1.7863 0.09125-0.16502c0.1945-0.35187 0.36733-0.58934 0.48654-0.69562 0.12719-0.11367 0.29261-0.20167 0.50993-0.25645 0.20477-0.0542 0.74333-0.12353 1.5651-0.19159l2.4052-0.19456 1.2291-2.2225-2.3462 0.12382c-0.8144 0.0366-1.3994 0.0965-1.7803 0.18858v5e-3c-0.2869 0.0712-0.58641 0.21866-0.88433 0.37135 0.17568-0.61427 0.28405-1.2093 0.1118-1.7096-0.20591-0.59307-0.62663-1.0646-1.238-1.4031-0.48198-0.26752-0.98848-0.38974-1.5033-0.35964zm251.81 1.9749-8.044 4.4627 1.7126 3.0891c0.32335 0.58529 0.63766 1.0292 0.95795 1.3323 0.41935 0.39227 0.85024 0.65573 1.294 0.78994h3e-3c0.57719 0.17409 1.2148 0.19838 1.9071 0.0738 0.57183-0.10104 1.18-0.3336 1.8304-0.69265h5e-3c0.73618-0.40899 1.3092-0.84066 1.7273-1.3028 0.41503-0.45876 0.71323-0.95859 0.88427-1.4974 0.17205-0.53953 0.19375-1.0951 0.071-1.6506-0.095-0.4198-0.32347-0.94902-0.68383-1.6005l-1.5799-2.8503zm-86.497 0.0115c-0.82017-4e-3 -1.688 0.11323-2.6056 0.3478h-5e-3l-3.8465 1.0228 0.68384 1.294 4.6601-0.94025c0.0144 0.16477 0.0257 0.33172 0.071 0.48043 0.12166 0.387 0.30787 0.70976 0.51879 1.0051-0.60731 0.18898-1.129 0.49259-1.4325 1.0287-0.35542 0.62867-0.3742 1.2429-0.27706 1.8393l-3.2306-1.8304-3.3485 0.83711 8.9547 5.0698-0.98743 1.742 1.689 0.95797 0.15332 0.0856 5.7654-10.193-1.8422-1.0434-1.238 2.1871c-0.33135 0.0404-0.65092-5e-3 -0.96975-0.1857v-3e-3c-0.22587-0.1273-0.37675-0.25868-0.45689-0.38613-0.0768-0.12239-0.0872-0.23907-0.0619-0.37734l0.25056-0.35665c0.1434-0.1604 0.25297-0.31384 0.33305-0.45394l0.0115-0.0182 8e-3 -0.0233c0.0831-0.31521 0.0817-0.6068-0.0207-0.85775-0.1076-0.25768-0.34013-0.49636-0.68383-0.74573l-5e-3 -5e-3 -6e-3 -5e-3c-0.55834-0.31662-1.2535-0.47254-2.078-0.47455zm-165.39 0.22107c0.19279-0.0394 0.39357-3e-3 0.62783 0.12673 0.20819 0.11586 0.34337 0.24898 0.42151 0.40384 0.08042 0.15874 0.10495 0.32267 0.07074 0.50992-0.02853 0.1515-0.24926 0.65598-0.66319 1.4001l-0.55385 1.0022-1.6624-0.91965 0.58955-1.0641c0.34851-0.6306 0.57809-1.017 0.64254-1.1024 0.16427-0.20592 0.33482-0.3158 0.52761-0.35668zm186.08 5e-3v9.8007h2.1223v-5.7684l3.5578 5.7684h2.184v-9.8007h-2.1192v5.8922l-3.6196-5.8922zm10.859 0v9.8007h7.5311v-1.9484h-5.2674v-2.2075h4.7279v-1.9513h-4.7279v-1.7483h5.0817v-1.9454zm10.11 0v9.8007h2.2638v-3.5636h1.067c0.86752 0 1.5367-0.047 2.0103-0.14151 0.36139-0.0779 0.71253-0.23821 1.0523-0.47457 0.34904-0.24281 0.63744-0.57517 0.85774-0.9904 0.22543-0.42705 0.33307-0.94749 0.33307-1.5504 0-0.78093-0.18953-1.4354-0.58068-1.9454-0.38631-0.50097-0.88021-0.83977-1.459-0.99036-0.39875-0.10676-1.147-0.14444-2.3108-0.14444zm12.002 0-3.8083 9.8007h2.4052l0.78113-2.1516h3.5489l0.81648 2.1516h2.4406l-3.9262-9.8007zm8.147 0.0798v9.7212h7.0035v-1.9483h-4.7398v-7.7727zm16.698 0.0297-1.6359 0.90196-0.1533 0.0884 0.99629 1.7833 1.7833-0.99039zm-141.27 0.027v9.8007h3.761c0.71327 0 1.2904-0.062 1.7361-0.20334 0.58285-0.18733 1.0524-0.4538 1.406-0.79878 0.46109-0.4484 0.81262-1.027 1.0552-1.7361 0.20124-0.58676 0.29768-1.2789 0.29768-2.0722 0-0.89891-0.10459-1.659-0.31833-2.2873-0.2124-0.62466-0.52738-1.1586-0.94027-1.5946-0.41472-0.43805-0.91815-0.74841-1.4974-0.91965-0.44115-0.1292-1.0485-0.18857-1.8422-0.18857h-3.4811zm10.859 0v5.2231c0 1.0653 0.0634 1.8755 0.19158 2.4406 0.0931 0.39453 0.28549 0.76901 0.5689 1.1201 0.28908 0.35597 0.67915 0.64524 1.1643 0.86365 0.50296 0.22427 1.2063 0.32717 2.1193 0.32717 0.75965 0 1.3844-0.0998 1.8776-0.30361 0.48323-0.19964 0.87973-0.46823 1.1761-0.81647 0.29587-0.34557 0.4963-0.76851 0.60426-1.2616 0.10905-0.49795 0.15618-1.3035 0.15618-2.4436v-5.1495h-2.2637v5.4088c0 0.74414-0.0265 1.2736-0.0766 1.574-0.0474 0.28268-0.18611 0.51436-0.43035 0.71332-0.23028 0.18636-0.59131 0.29478-1.1024 0.29478-0.50091 0-0.87542-0.11441-1.1407-0.31836-0.27099-0.20817-0.43639-0.47813-0.50993-0.8253-0.0393-0.20625-0.0709-0.74095-0.0709-1.5504v-5.2969h-2.0869zm-85.976 4e-3v9.8007h2.2637v-2.9624l1.3293-1.3647 2.5378 4.327h2.8887l-3.8496-5.9246 3.7552-3.8761h-3.0537l-3.6079 3.9113v-3.9113zm13.597 0-3.8083 9.8007h2.4052l0.78109-2.1517h3.5489l0.81943 2.1517h2.4406l-3.9262-9.8001zm6.5495 0v1.9454h2.8002v7.8553h2.2637v-7.8552h2.7855v-1.9454zm10.063 0v9.8007h2.2637v-4.1325h3.3779v4.1325h2.2637v-9.8007h-2.2637v3.7228h-3.3779v-3.7228zm10.832 0v9.8007h2.1223l0.0063-6.19 1.5445 6.19h2.1104l1.5504-6.1958 8e-3 6.1958h2.1193v-9.8007h-3.1833l-1.5416 5.9306-1.5593-5.9306zm15.118 0-3.8083 9.8007h2.4052l0.78406-2.1517h3.5489l0.81646 2.1517h2.4406l-3.9262-9.8007zm8.0969 0v9.8007h2.1223v-5.7691l3.5548 5.7684h2.1871v-9.8007h-2.1193v5.8922l-3.6196-5.8922zm117.54 1.8068h0.74573c0.68037 0 1.1385 0.025 1.3352 0.0621 0.27379 0.0503 0.48941 0.16924 0.66615 0.36551 0.17186 0.19256 0.2535 0.42766 0.2535 0.73986 0 0.24948-0.0597 0.45473-0.1827 0.63666-0.12356 0.18269-0.28924 0.31388-0.5129 0.40087-0.19677 0.0771-0.69568 0.13847-1.4384 0.13847h-0.86659zm-104.42 0.13847h0.67795c0.77218 0 1.2911 0.0365 1.5209 0.0884h5e-3c0.32785 0.071 0.58647 0.20521 0.79288 0.40085h2e-3c0.20454 0.19196 0.37007 0.46973 0.49224 0.84006 0.11871 0.36197 0.18571 0.90693 0.18571 1.6271 0 0.72015-0.0651 1.2875-0.18571 1.683-0.12352 0.40504-0.28039 0.67855-0.44801 0.83121-0.17912 0.1632-0.40996 0.28005-0.69271 0.3508-0.20458 0.0524-0.5837 0.0855-1.1083 0.0855h-1.2439zm146.42 0.44805 0.30064 0.54527c0.34993 0.62987 0.55954 1.071 0.62194 1.2822 0.0892 0.301 0.0981 0.57429 0.0324 0.8283-0.0654 0.25347-0.21693 0.51625-0.46573 0.78404-0.23995 0.25845-0.65341 0.56029-1.2438 0.88721-0.58881 0.32511-1.0792 0.52361-1.4561 0.60427v5e-3h-3e-3c-0.38452 0.0843-0.68045 0.078-0.87545 0.0115-0.21482-0.0722-0.41417-0.20663-0.60129-0.40674-0.13384-0.14252-0.33361-0.43486-0.57182-0.86362l-0.55711-1.011zm-31.145 0.35369 1.0523 2.8179h-2.0839zm-177.94 0.13847 1.0523 2.8179h-2.081zm42.562 5e-3 1.0552 2.8149h-2.081zm81.146 1.2203c0.1499 0.13689 0.29865 0.26969 0.44217 0.37435 0.17768 0.12962 0.37668 0.25696 0.59245 0.38027 0.32113 0.18173 0.69468 0.32324 1.0847 0.45391l-1.3588 2.3994-1.3264-0.74575c-0.33565-0.19178-0.52493-0.4271-0.60132-0.73101-0.0754-0.29814-0.0399-0.70419 0.11484-1.2026 0.30346-0.53295 0.65758-0.81362 1.0523-0.92849zm-170.81 0.071-3.5724 6.4435 1.6123 0.89311 1.2704-2.2903 6.2783 3.4811 0.15343 0.0856 1.0434-1.8747-6.4346-3.5636 1.2616-2.2845zm161.73 3.0418-1.8718 0.51876 0.46573 1.7126 0.0474 0.16803 1.8658-0.53352zm-32.582 0.41855v2.1605h0.82238c-0.0297 0.2277-0.0599 0.45347-0.15619 0.58656-0.12352 0.169-0.34928 0.31982-0.68973 0.43332l-0.1827 0.0589 0.50107 1.0759 0.15032-0.0559c0.40342-0.14368 0.74351-0.34257 1.0139-0.60427 0.27105-0.25803 0.45945-0.56027 0.5571-0.8931 0.0983-0.32975 0.14726-0.75262 0.14726-1.2881v-1.4745h-1.9867zm45.858 2.644-1.8835 0.51879 0.53355 1.7568 0.0557 0.16804 1.8128-0.57182zm79.873 0.71332-1.6359 0.90197-0.15332 0.0884 0.99337 1.7833 1.7862-0.99039zm-150.38 8.3889-0.50992 1.8688 1.854 0.53942 0.53057-1.8658-1.7066-0.49521zm54.235 0.16501c-0.70801-0.0624-1.4694 0.0182-2.2784 0.23581l-3.823 1.0611 0.32132 1.2026 3.7994-1.0552c0.0702 0.31364 0.16079 0.62196 0.33015 0.89605l0.13555 0.22991 8e-3 8e-3c0.0474 0.0884 0.11266 0.17084 0.1885 0.24465l0.15331 0.15028c-0.10182 0.11297-0.20465 0.22622-0.28296 0.33016-0.10846 0.14414-0.20425 0.28819-0.28884 0.43622l-5e-3 3e-3 -0.30948 0.64847v5e-3c-0.23538 0.61158-0.33749 1.3091-0.30658 2.0927l3e-3 0.10016 1.0965 0.61898-0.20044-0.0384c-0.22598-0.0415-0.5037-0.0524-0.83123-0.0444-0.33218 8e-3 -0.7111 0.041-1.1466 0.10016-0.92663 0.12425-1.8344 0.58136-2.7147 1.3588v3e-3h-5e-3c-0.16678 0.15597-0.30596 0.34224-0.42441 0.55118-0.34721 0.61376-0.37413 1.4656-0.27117 2.4199l-2.0279-1.1466-3.1539 0.86069 8.9606 5.0728-0.50698 0.89015-0.0233-0.0115-0.71628 1.2733-6.6968-3.7906-3.4133 0.71923 8.9724 5.0786-0.60424 1.07h-3e-3l-0.28592 0.50993-0.48046 0.84594-6.9268-3.9202-3.1451 0.86658 8.937 5.0639-0.92848 1.6388 0.0206 0.0115-0.0882 0.15912-2.5024-1.4178c-0.89075-0.50502-1.8898-0.47654-2.927 0.0622-0.60906 0.30823-1.074 0.73327-1.3795 1.2737-0.20865 0.36871-0.30133 0.82794-0.35964 1.3058l-2.0073-1.1407-3.2071 0.89313 8.9606 5.0698-0.63668 1.1289-0.0207-0.0115-2.9123 5.1464-1.1112-0.62783 1.2645-2.2402c0.25498-0.45139 0.42438-0.92455 0.49812-1.4178 0.076-0.49504 0.036-0.97318-0.12382-1.4207v-3e-3c-0.0856-0.24469-0.19902-0.45778-0.33603-0.63668-0.13962-0.18254-0.31342-0.33584-0.52463-0.45689h-5e-3c-0.6187-0.35033-1.1864-0.58384-1.7096-0.70151-0.51669-0.11369-1.1863-0.19495-2.019-0.2476h-3e-3c-0.37874-0.0115-0.79377 0.0199-1.2439 0.097h-5e-3c-0.20102 0.0389-0.40932 0.0815-0.62195 0.13269-0.20619 0.0503-0.39266 0.096-0.56892 0.13847h-6e-3l-0.86361 0.28298 0.53352 1.0876 1.2321-0.20333h4e-3c0.50478-0.0668 0.99408-0.0914 1.4649-0.0738 0.88919 0.0318 1.4779 0.14528 1.7096 0.27705 0.19679 0.1115 0.35564 0.27789 0.48341 0.51876 0.16216 0.30801 0.19598 0.59018 0.11484 0.88427-0.0866 0.31433-0.2584 0.70881-0.52169 1.1761l-0.9049 1.5917-3.6669-2.078-3.1244 0.82532 8.94 5.0639-0.98449 1.742 1.8422 1.0405 4.7102-8.3239 0.30361-0.53354 4.1502-7.3335 0.28-0.49812 0.86659-1.5357c0.39401 0.0239 0.7652 0.1079 1.0994 0.2977 0.51877 0.29245 0.87582 0.72085 1.0847 1.3058 0.20489 0.57374 0.14591 1.1372-0.19455 1.7361-0.2041 0.3614-0.59283 0.81724-1.1672 1.3559v3e-3c-0.31833 0.30208-0.71524 0.52528-1.2026 0.6717-0.496 0.14893-0.97362 0.22616-1.4266 0.2358-0.46296 9e-3 -0.82389-0.0229-1.07-0.0914l-0.13266-0.0384-0.43624 0.77521 0.22405 0.0531c0.85964 0.21543 1.6535 0.28045 2.3817 0.18857v5e-3c0.73014-0.0899 1.4805-0.36396 2.2549-0.8076 0.54432-0.30726 1.0414-0.67563 1.4944-1.1142 0.45084-0.44049 0.81788-0.90636 1.0965-1.3971v-3e-3c0.22969-0.40936 0.35495-0.7713 0.35962-1.1054 0.0245-0.72455-0.0404-1.3446-0.2034-1.8629l-3e-3 -3e-3c-0.0941-0.2784-0.22234-0.52405-0.38907-0.74277-0.16883-0.22205-0.3923-0.41218-0.6573-0.56297-0.80996-0.45869-1.5074-0.59967-2.1547-0.5866l0.43622-0.76636 0.22991-0.40675 0.0589-0.10315 2.4642-4.3536-5e-3 -3e-3 2.9211-5.1525-2.7265 0.55711-0.37729 0.6691-2.0162-1.1437c-0.1-0.0581-0.20408-0.16137-0.30066-0.3242-0.10104-0.16883-0.17967-0.34428-0.23581-0.53353l-3e-3 -3e-3 -0.11789-0.339c-0.12758-0.34922-0.20865-0.66322-0.24464-0.92845-0.0353-0.26454-0.0229-0.50685 0.0324-0.73397 0.0922-0.39037 0.19742-0.6852 0.30952-0.88427 0.10846-0.19316 0.24218-0.33624 0.40085-0.43622 0.0834-0.0524 0.15476-0.0835 0.19457-0.0942 0.0399-9e-3 0.0393-5e-3 0.0269-0.0115-0.0354-0.0206 0.0307 0.045 0.071 0.20335 0.0399 0.15832 0.0765 0.39595 0.10316 0.70447 0.0547 0.63036 0.10947 1.1004 0.16802 1.4178 0.0632 0.34394 0.24179 0.63963 0.5158 0.8548l3e-3 3e-3 0.48045 0.32718h5e-3c0.51665 0.2919 1.0602 0.45332 1.6241 0.47453 0.55857 0.0212 1.0837-0.0726 1.571-0.28001l5e-3 -3e-3h3e-3c0.7552-0.35479 1.3-0.80991 1.6182-1.3706 0.10787-0.19296 0.17585-0.33682 0.20042-0.46867v-3e-3c0.0644-0.29459 0.0201-0.58786-0.13559-0.84298-0.15631-0.25749-0.41527-0.47726-0.76045-0.67207-0.22604-0.12832-0.42968-0.22183-0.61309-0.27704-0.17949-0.0524-0.37029-0.0841-0.56891-0.0882-0.19716-5e-3 -0.39217 0.016-0.58654 0.059h-4e-3c-0.39279 0.0883-0.64857 0.16939-0.81647 0.28884l-0.0559 0.0384-0.22107 1.1083 0.32428-0.16502c0.20903-0.10673 0.50237-0.0687 0.91077 0.15616 0.12687 0.13442 0.20659 0.27381 0.23579 0.42449 0.0302 0.15412 3e-3 0.3075-0.0942 0.48044-0.0783 0.13718-0.15936 0.1835-0.33304 0.17968-0.17368-5e-3 -0.43407-0.0897-0.76048-0.27414-0.21567-0.1221-0.36033-0.27115-0.45095-0.46274-0.0995-0.20808-0.19152-0.48263-0.27413-0.82238v-4e-3c-0.11817-0.45084-0.14909-0.85528-0.0914-1.2144 0.058-0.3623 0.21874-0.77922 0.48339-1.2498l0.11209-0.20045 1.0169 0.57477-0.20042-0.47747c-0.13906-0.32696-0.20044-0.56684-0.20044-0.67797 0-0.10094 0.0801-0.46987 0.25347-1.008 0.044-0.13284 0.0916-0.24846 0.14444-0.34188 0.26406-0.46452 0.54065-0.63318 0.89606-0.60133h8e-3c0.0798 5e-3 0.13745 0.0229 0.18269 0.0475 0.0286 0.016 0.13602 0.1089 0.26826 0.26819 0.1515 0.18557 0.34703 0.34167 0.58067 0.47457 0.32146 0.18191 0.70002 0.32325 1.0906 0.45392l-1.5328 2.703 1.8216 1.0287 3.7848-6.6733-1.8275-1.0287-1.2321 2.1812c-0.33479 0.0399-0.65227-5e-3 -0.97273-0.18572-0.2262-0.12861-0.37331-0.26204-0.4539-0.38906-0.0763-0.12048-0.092-0.2347-0.068-0.36847l0.25645-0.36252 0.0115-0.0145c0.13397-0.15173 0.24457-0.29825 0.3213-0.43623l0.0115-0.0206 3e-3 -0.0234c0.0773-0.33231 0.081-0.62663-0.0144-0.86952v-4e-3c-0.10057-0.25724-0.34121-0.48494-0.69564-0.73098l-3e-3 -3e-3 -8e-3 -4e-3c-0.75964-0.43025-1.4978-0.6798-2.2136-0.74281zm-51.072 2.4762-8.9841 5.0108-0.97271-1.7479-1.6978 0.94618-0.15332 0.0856 5.7064 10.222 1.8511-1.0287-1.2232-2.1929c0.13885-0.3059 0.34019-0.55396 0.66025-0.73393 0.22805-0.12687 0.41798-0.18333 0.56891-0.18571 0.14287-3e-3 0.25104 0.0422 0.3537 0.13267l0.18268 0.43036-5e-3 -0.0206c0.0628 0.20283 0.13037 0.37663 0.20928 0.51876l0.012 0.0206 0.0141 0.0145c0.22764 0.23644 0.47605 0.38377 0.74279 0.4274h5e-3c0.27552 0.0427 0.59825-0.0286 0.99038-0.19457l5e-3 -5e-3 7e-3 -3e-3c0.5624-0.31222 1.0566-0.82727 1.4885-1.5298 0.42729-0.6984 0.78081-1.4997 1.0582-2.4052l1.1289-3.82-1.4591-0.0855-1.627 4.4655c-0.14749-0.0732-0.29517-0.15155-0.44506-0.18858-0.39364-0.0961-0.76466-0.10482-1.126-0.0797 0.15473-0.61662 0.1642-1.2217-0.13564-1.7597-0.35268-0.63191-0.86672-0.96469-1.4296-1.1908l3.2453-1.8098zm-6.0131 6.1723c0.15432-0.021 0.30571-8e-3 0.4539 0.0384 0.29604 0.0913 0.62291 0.33127 0.96977 0.72511 0.29116 0.53115 0.3461 0.98164 0.23874 1.3765-0.19374 0.0563-0.38174 0.11659-0.54527 0.18571v-5e-3c-0.2027 0.0835-0.41547 0.19098-0.63373 0.31247-0.32204 0.17952-0.63436 0.42558-0.94912 0.68975l-1.3441-2.4082 1.3264-0.74278c0.16942-0.0939 0.32902-0.14948 0.48343-0.17106zm-6.9711 0.55121-0.45689 1.8452 1.8688 0.5276 0.53355-1.8747-1.7774-0.45687zm16.692 2.9475-0.50993 1.8688 1.854 0.53941 0.53056-1.8658-1.7066-0.49521zm3.4103 3.1392-8.9606 5.008-0.89311-1.6035-1.6949 0.94615-0.15331 0.0856 5.2112 9.3586 0.012-5e-3 0.63078 1.1318c-0.22598 0.32491-0.49115 0.59249-0.82826 0.78112-0.52094 0.29068-1.0694 0.37297-1.6772 0.2476-0.59807-0.12296-1.0485-0.4638-1.3854-1.067-0.20061-0.36174-0.38731-0.93468-0.54826-1.7037-0.0888-0.42838-0.0759-0.88297 0.0531-1.3736h5e-3c0.12919-0.50107 0.3063-0.94788 0.53348-1.3441 0.23233-0.39958 0.44929-0.6901 0.63668-0.86656l0.10316-0.0943-0.43621-0.7693-0.16218 0.16215c-0.63235 0.62006-1.1008 1.2646-1.403 1.9336-0.30357 0.66987-0.45877 1.4551-0.48341 2.3462-0.0206 0.62273 0.0372 1.24 0.17688 1.854 0.14003 0.61381 0.34743 1.1696 0.62195 1.6624 0.22812 0.41022 0.47648 0.70776 0.75753 0.88429 0.60573 0.39459 1.169 0.66196 1.6948 0.7929h4e-3c0.28535 0.0618 0.571 0.0836 0.84596 0.0531 0.27727-0.0286 0.55066-0.11903 0.8165-0.26825 0.81453-0.45374 1.293-0.97599 1.6182-1.5357l0.71625 1.2852 1.8511-1.0317-0.75753-1.3588 6.9562-3.879 0.89015-3.139-8.9664 5.002-0.91964-1.6418-0.0121 5e-3 -2.6028-4.6689 1.8393-1.0258c-0.24824 0.92174-0.28167 1.8271 0.17106 2.641 0.19758 0.35517 0.43702 0.66374 0.71921 0.92259 0.56035 0.54135 1.0437 0.8919 1.4738 1.0493 0.43872 0.16136 0.95562 0.12354 1.5357-0.0825h5e-3l0.41559-0.17991 7e-3 -5e-3c0.87253-0.48637 1.4272-1.361 1.6654-2.5702 0.19983-0.99731 0.0935-1.8893-0.32718-2.6441v-4e-3c-0.12354-0.22182-0.40417-0.50292-0.87835-0.92847-0.23622-0.211-0.42443-0.37565-0.56299-0.49223-0.0265-0.0221-0.0343-0.0228-0.0558-0.041l0.71626-0.40085zm-4.3152 5.2968c0.0961 5e-3 0.19575 0.0394 0.31246 0.10598 0.12011 0.0669 0.2906 0.17283 0.50405 0.31248 0.20977 0.13658 0.4661 0.31439 0.77225 0.53645v-3e-3l0.49522 0.36847c0.11368 0.0823 0.21063 0.16217 0.2918 0.22992v-5e-3c0.0813 0.0696 0.17346 0.15676 0.27413 0.25347 0.0881 0.0845 0.17887 0.20376 0.26529 0.35956 0.16175 0.28874 0.16199 0.55146 2e-3 0.85776-0.0496 0.0804-0.10417 0.13617-0.17687 0.1769-0.12659 0.0706-0.33294 0.0784-0.63964-0.0206-0.30668-0.0987-0.6995-0.30253-1.1672-0.61605h-5e-3c-0.45351-0.29219-0.83878-0.71689-1.1554-1.2881-0.15014-0.26905-0.23848-0.49251-0.27709-0.65732-0.0388-0.16478-0.0234-0.26031 5e-3 -0.30653l5e-3 -5e-3v-5e-3c0.0577-0.10395 0.12435-0.17344 0.20631-0.21811 0.0961-0.0536 0.18977-0.0814 0.28594-0.0767zm34.348 6.1222c0.24448-0.0658 0.46882-0.0348 0.70741 0.10016l3.1922 1.8069-1.2321 2.1782-2.5408-1.4384c-0.1775-0.10115-0.308-0.22737-0.40086-0.38907-0.0996-0.17324-0.16301-0.34977-0.19744-0.52763v-5e-3l-0.12672-0.56593v-0.0115c-0.0919-0.27538-0.0716-0.50336 0.0559-0.72805 0.1221-0.21663 0.2933-0.35182 0.54232-0.4215zm-19.749 6.2606-1.1997 2.5613c-0.51387-0.28626-1.061-0.411-1.5799-0.12093-0.40823 0.22775-0.71954 0.5398-0.92262 0.9285-0.20819 0.39823-0.21155 0.82006-2e-3 1.1938 0.25006 0.45051 0.59627 0.74365 1.014 0.83417 0.32757 0.0707 0.63423-0.0201 0.9344-0.13848 0.17003 0.33785 0.26232 0.64564 0.22695 0.89313-0.0388 0.27345-0.17988 0.46732-0.47455 0.63079-0.46795 0.26117-0.94038 0.33137-1.4473 0.22108-0.50791-0.11208-0.85019-0.36037-1.0788-0.76638l-0.73986-1.3293-1.2851 1.7096 0.51579 0.91964c0.36535 0.65565 0.63265 1.321 0.80176 1.9896 0.0815 0.32986 0.10523 0.5956 0.0855 0.79288-0.0182 0.18535-0.0749 0.29632-0.15618 0.37437-0.24817 0.13369-0.46389 0.13614-0.731-0.027-0.28672-0.17386-0.51151-0.40989-0.68088-0.71334l-1.5917-2.8473-1.3883 1.6654 1.3883 2.4849c0.37202 0.6666 0.98107 1.0769 1.7774 1.2085h2e-3c0.79035 0.12862 1.5474-3e-3 2.249-0.39203 0.27447-0.15394 0.477-0.46371 0.65141-0.90491 0.17488-0.44432 0.27191-0.93298 0.29478-1.4649v-9e-3c0-0.54027-0.10785-1.0159-0.33014-1.4148l-4e-3 -5e-3 -0.0648-0.0914c0.0337 0.0115 0.0693 8e-3 0.10316 0.0206 0.25718 0.092 0.51655 0.14752 0.77817 0.1592 0.56388 0.0801 1.1344 0.0658 1.7066-0.25348v5e-3c0.45534-0.25296 0.80431-0.57456 1.0434-0.95502 0.23759-0.37793 0.37323-0.80737 0.40087-1.2881v-5e-3c0.036-0.86965-0.16964-1.6735-0.56004-2.4171l1.2852-2.6881zm4.0146 7.6194-0.0766 0.15916c-0.16622 0.36189-0.32685 0.6115-0.46574 0.74865-0.2395 0.23531-0.47748 0.42068-0.71626 0.55415l-7.1096 3.9675c-0.71325 0.39859-1.1698 0.92561-1.3235 1.5711-0.15412 0.6473 0.0107 1.3741 0.451 2.1665 0.29182 0.52488 0.66279 0.92879 1.1112 1.2056 0.44706 0.27674 0.93157 0.42333 1.4443 0.43622 0.51088 0.0144 0.99026-0.10503 1.4325-0.35079 0.30174-0.16883 0.56125-0.37015 0.77817-0.60425 0.2155-0.23042 0.39037-0.48927 0.51878-0.7752v-3e-3c0.26852-0.56411 0.3696-1.2 0.3036-1.8894v-5e-3c-0.0463-0.52328-0.18812-1.0026-0.4274-1.4325-0.0847-0.15068-0.1658-0.284-0.2476-0.39797h-5e-3c-0.0405-0.0548-0.0857-0.11019-0.12976-0.16501l4.156-2.3138c0.41514-0.23159 0.73571-0.5921 0.94618-1.0582 0.214-0.47389 0.22878-0.96876 0.0474-1.4502l-0.0269-0.068zm-6.1958 6.417c0.19718-0.0216 0.3728-9e-3 0.52471 0.0269 0.30467 0.074 0.52726 0.25193 0.7015 0.56593 0.0756 0.13541 0.13564 0.29557 0.17106 0.48935v8e-3c0.0469 0.19861 0.0251 0.35868-0.0647 0.51581-0.09 0.15713-0.25861 0.31519-0.51878 0.45984-0.25166 0.14252-0.54328 0.23328-0.87835 0.27703-0.32218 0.0438-0.64496-5e-3 -0.9727-0.15616v-3e-3c-0.33117-0.15151-0.55043-0.34391-0.67795-0.57478-0.0496-0.0893-0.0808-0.18109-0.0942-0.28297v-5e-3c-0.0373-0.36635 0.15212-0.66096 0.66023-0.94323l0.48638-0.22108h2e-3c0.24241-0.0841 0.46307-0.1376 0.66026-0.15914zm7.3631 1.4355c-0.94354-0.12139-1.8574 0.0602-2.7235 0.54527-0.63846 0.35685-1.156 0.83423-1.5475 1.4267-0.39424 0.59661-0.58745 1.2566-0.57479 1.9601v5e-3c0.0251 0.55715 0.17609 1.0798 0.44218 1.5593 0.1483 0.26705 0.33446 0.51642 0.55709 0.75163 0.22068 0.23107 0.45471 0.43789 0.71037 0.61605h5e-3c0.56302 0.37605 1.162 0.62837 1.7951 0.75163 0.63731 0.12571 1.265 0.0977 1.8746-0.0766 0.40989-0.12006 0.78852-0.27269 1.1289-0.46275 1.2104-0.6759 1.8812-1.6864 1.9631-2.9712 0.0497-0.68278-0.10566-1.3488-0.4598-1.9837-0.30751-0.55392-0.74105-1.0231-1.2969-1.3972-0.5563-0.37433-1.1812-0.61674-1.8688-0.7251zm-0.19454 1.5622c0.16739-0.0207 0.33097-2e-3 0.49811 0.0559l8e-3 3e-3h3e-3c0.31382 0.0841 0.55434 0.28258 0.74572 0.62488 0.16662 0.29858 0.25453 0.65795 0.25646 1.0788 5e-3 0.42684-0.064 0.82664-0.20339 1.2026-0.26083 0.63262-0.71405 1.1291-1.3795 1.5003-0.41067 0.22941-0.76587 0.32871-1.0611 0.32129-0.29523-6e-3 -0.53891-0.11412-0.76049-0.34194l-2e-3 -5e-3 -2e-3 -3e-3c-0.0348-0.0318-0.12052-0.1475-0.22106-0.32716-0.32821-0.58793-0.25308-1.3683 0.29768-2.3935v-3e-3c0.40092-0.77242 0.84555-1.2775 1.3028-1.5327 0.18132-0.10104 0.35141-0.16216 0.51877-0.18269zm6.5819 3.6431-2.9563 4.7279c-1.392-0.92258-2.9382-0.98496-4.5629-0.0795-0.74741 0.41798-1.3011 0.89167-1.6477 1.4266-0.34224 0.52811-0.51022 1.1033-0.49812 1.7096 0 0.31315 0.0393 0.62502 0.11486 0.94027 0.0752 0.31447 0.18332 0.65185 0.33305 1.0169 0.0292 0.0865 0.0733 0.17447 0.12674 0.27114 0.0524 0.0953 0.10294 0.19137 0.1592 0.29182 0.28937 0.51917 0.65163 1.044 1.0818 1.574 0.21326 0.26285 0.38438 0.46648 0.51579 0.61308 0.13141 0.14671 0.19703 0.22913 0.30655 0.28885l0.13562 0.0737 1.4443-2.0722-0.20043-0.0856c-0.14125-0.0596-0.41386-0.22559-0.78406-0.49224-0.36419-0.26433-0.65631-0.5372-0.87543-0.81351-0.46018-0.55825-0.75954-0.96505-0.88723-1.1967-0.32141-0.57626-0.33261-1.0054-0.0824-1.3736 0.25201-0.33742 0.52289-0.5869 0.80767-0.74574 0.38672-0.21588 0.80894-0.31094 1.2822-0.29768 0.47987 0.016 0.90239 0.10819 1.2763 0.27117 0.37559 0.16684 0.60243 0.35072 0.69565 0.51877 0.0229 0.0404 0.0336 0.23916-0.0884 0.55711-0.0759 0.20779-0.13557 0.35956-0.17106 0.44803v5e-3c-0.0484 0.12889-0.0835 0.24117-0.10598 0.34189-0.0541 0.24487-5.9e-4 0.52458 0.12978 0.84298l5e-3 5e-3 3e-3 0.0115c0.16941 0.30315 0.47143 0.48105 0.84007 0.51287 0.35817 0.0307 0.6964-0.0348 0.99625-0.20043h4e-3c0.60433-0.33886 0.99234-0.88738 1.1437-1.6035v-5e-3c0.11165-0.55815 0.0286-1.0948-0.24461-1.5828v-5e-3c-0.0662-0.12151-0.13501-0.22734-0.20044-0.31244h-3e-3v-5e-3c-0.0405-0.0508-0.0866-0.10056-0.13252-0.15028l3.0565-4.9814z" fill="#fff"/>
	<path d="m164.6 114.34c-3.5321 0.0188-6.6999 0.46949-9.4589 1.7067-4.7477 2.129-8.0524 6.8428-9.862 15.174-0.15498-3.4935-0.64055-6.5522-1.7796-8.8042-1.5892-3.1418-4.0946-5.1585-7.2184-6.3277-6.2476-2.3383-14.954-1.4307-24.616-0.0672l-0.2035 0.0288-0.12286 0.16318c-5.0769 6.8112-9.2303 12.671-9.8467 18.687-0.53029 5.1759 1.8999 10.394 8.2091 16.126-3.1027-1.6126-5.9946-2.719-8.5143-2.8586-3.5155-0.19476-6.5138 0.96634-9.0883 3.087-5.149 4.2414-8.717 12.235-12.367 21.285l-0.07677 0.19006 0.0806 0.18815c3.3594 7.8028 6.3578 14.33 11.26 17.871 4.2178 3.0474 9.9526 3.551 18.073 0.95222-2.949 1.8815-5.3556 3.8345-6.7366 5.9475-1.9263 2.9473-2.4192 6.1228-1.8699 9.4128 1.0986 6.5799 6.2371 13.668 12.248 21.354l0.12671 0.16127 0.2035 0.025c8.4375 0.99182 15.588 1.6585 21.106-0.81591 4.7483-2.1291 8.0526-6.8433 9.862-15.176 0.15449 3.4944 0.64055 6.5537 1.7797 8.8061 1.5889 3.1419 4.0927 5.1565 7.2165 6.3257 6.2476 2.3385 14.957 1.4337 24.62 0.0711l0.20158-0.0288 0.12287-0.16511c5.0769-6.812 9.2303-12.671 9.8466-18.687 0.53032-5.1761-1.8992-10.394-8.2091-16.126 3.1027 1.6123 5.9967 2.7192 8.5162 2.8586 3.5153 0.19451 6.5121-0.96633 9.0864-3.087 5.1487-4.2414 8.7178-12.236 12.369-21.285l0.0768-0.19006-0.0826-0.18814c-3.3605-7.8028-6.3581-14.329-11.26-17.871-4.2165-3.0471-9.9481-3.5527-18.065-0.95606 2.9459-1.8801 5.3489-3.8303 6.7289-5.9418 1.9261-2.9471 2.4194-6.1247 1.8699-9.4147-1.0991-6.58-6.2372-13.669-12.248-21.356l-0.12671-0.16126-0.20349-0.023c-4.2187-0.49541-8.1153-0.90952-11.647-0.89079zm0.0153 0.99639c3.3865-0.0182 7.1858 0.37245 11.308 0.85431 5.9355 7.6003 10.906 14.595 11.933 20.743 0.51751 3.098 0.071 5.9685-1.7221 8.712-1.7931 2.7436-4.9654 5.3648-9.9407 7.8194l0.40508 0.89654c10.279-4.2345 16.533-3.7965 21.12-0.48186 4.5453 3.2847 7.5233 9.5838 10.841 17.276-3.6138 8.9395-7.1859 16.74-11.997 20.703-2.4242 1.997-5.1342 3.0454-8.4068 2.8643-3.2726-0.18109-7.128-1.6165-11.741-4.6978l-0.57403 0.79672c8.8066 6.7845 11.554 12.42 10.977 18.05-0.57161 5.5792-4.5363 11.308-9.5395 18.029-9.5494 1.3406-18.091 2.1467-23.928-0.0384-2.9415-1.101-5.2055-2.9247-6.6848-5.8496-1.4792-2.9249-2.163-6.9827-1.8008-12.519l-0.97718-0.0979c-1.4721 11.02-4.9783 16.218-10.142 18.534-5.1175 2.2947-12.064 1.7244-20.384 0.75064-5.9348-7.5985-10.903-14.592-11.93-20.74-0.51724-3.098-0.0713-5.9701 1.7221-8.714 1.7933-2.7438 4.9654-5.3662 9.9407-7.8213l-0.40316-0.89462c-10.279 4.2342-16.535 3.796-21.122 0.48186-4.5452-3.284-7.5248-9.5808-10.841-17.272 3.6131-8.9415 7.1852-16.743 11.997-20.707 2.4243-1.997 5.134-3.0457 8.4068-2.8643 3.2728 0.18132 7.1299 1.618 11.743 4.6997l0.5721-0.79863c-8.8066-6.7854-11.552-12.42-10.975-18.05 0.57154-5.5785 4.5352-11.308 9.5376-18.027 9.5483-1.3414 18.091-2.1484 23.928 0.0365 2.9415 1.1009 5.2052 2.9247 6.6848 5.8496 1.4789 2.9238 2.1616 6.9803 1.8008 12.513-1.4e-4 2e-3 1.4e-4 4e-3 0 6e-3l-0.0711 0.52219h1.0232l0.0268-0.43964c1.4736-11.009 4.9792-16.204 10.14-18.518 2.5818-1.1578 5.6238-1.5883 9.073-1.6069zm-19.701 20.074c1.4616-22.368-13.881-21.626-33.181-18.902-10.144 13.61-16.331 23.26 1.4142 36.933-18.64-12.45-25.669 1.2065-32.961 19.284 6.7127 15.591 11.978 25.773 32.69 17.241-20.101 9.9191-11.788 22.834 0.21955 38.188 16.859 1.9818 28.311 2.5139 31.278-19.692-1.4636 22.368 13.878 21.626 33.181 18.904 10.144-13.612 16.331-23.262-1.4142-36.933 18.64 12.449 25.667-1.2085 32.961-19.284-6.715-15.591-11.978-25.776-32.69-17.243 20.101-9.9168 11.786-22.833-0.22152-38.188-16.859-1.9798-28.309-2.5119-31.276 19.692z" fill="#fff"/>
	<path d="m135.29 121.52c-0.63256-0.10461-1.1374 0.58048-0.86459 1.1552 0.11727 0.44444 0.49852 0.69324 0.84548 0.94284 1.6075 1.2496 2.6537 3.1303 3.0177 5.1208 0.21595 1.0989 0.25964 2.2249 0.2111 3.3416 0.0728 0.73346 0.57883 1.5577 1.3848 1.5913 0.61152 0.0262 1.0346-0.57467 1.0427-1.1411 0.0262-0.66741-0.14396-1.3275-0.22741-1.987-0.47205-2.7956-1.3927-5.643-3.3457-7.7687-0.33071-0.32997-0.64266-0.7054-1.042-0.95066-0.32067-0.1523-0.66479-0.28879-1.022-0.30408zm19.763 0.45688c-0.53177 0.0319-1.0855 0.19804-1.4661 0.58727-2.1148 1.7843-3.3113 4.4056-3.9778 7.0403-0.25114 0.98974-0.44832 2.006-0.58573 3.0108-0.0314 0.56873 0.26883 1.2636 0.89996 1.3342 0.78559 0.0864 1.383-0.66017 1.5216-1.3662 0.0754-0.52128 9e-3 -1.0577 0.0734-1.5832 0.14391-2.2125 0.88746-4.47 2.4807-6.0666 0.46115-0.47787 0.99333-0.88124 1.5432-1.2492 0.39704-0.38724 0.63198-1.1605 0.10569-1.5436-0.17209-0.12172-0.38935-0.1633-0.59497-0.16393zm-48.487 15.23c-0.61043 3e-3 -0.88519 0.68412-0.92511 1.2041-0.10165 0.45586 0.0439 0.88872 0.1832 1.3213 0.85501 2.7057 2.8594 4.8701 5.0593 6.5788 0.65247 0.49561 1.314 0.99755 2.0146 1.4155 0.50251 0.27743 1.262 0.30361 1.594-0.24481 0.4125-0.67494-0.0148-1.5321-0.59674-1.9546-0.46869-0.30436-1.0119-0.48466-1.4869-0.78439-1.9322-1.074-3.6432-2.714-4.3946-4.833-0.22461-0.59451-0.35346-1.228-0.45522-1.8476-0.16832-0.41615-0.50274-0.84913-0.99247-0.85518zm76.945 1.7744c-0.59583 5.9e-4 -1.0595 0.5778-1.1138 1.1388-0.42015 1.9851-1.6348 3.7562-3.269 4.9444-0.98323 0.73865-2.0938 1.2878-3.2304 1.7458-0.64157 0.36356-1.1838 1.1627-0.8869 1.9115 0.24042 0.594 1.0079 0.70488 1.5413 0.46937 0.78793-0.38592 1.5166-0.90646 2.2458-1.3993 2.2752-1.5992 4.3702-3.6698 5.343-6.3302 0.16592-0.41969 0.30977-0.85319 0.22684-1.3106-0.0336-0.49709-0.269-1.1495-0.85695-1.1699zm-84.4 13.447c-0.8825 0.0108-1.8414 0.057-2.55 0.65623-0.42768 0.28034-0.78674 0.92602-0.37503 1.3682 0.38649 0.39614 1.0232 0.46829 1.5172 0.24401 1.9458-0.57962 4.082-0.35375 5.9081 0.5121 1.0909 0.49504 2.0937 1.1946 3.0134 1.9386 0.62743 0.38301 1.5889 0.48158 2.1004-0.14191 0.25553-0.31622 0.27658-0.80237-0.016-1.1039-0.47593-0.68503-1.2814-0.98352-1.9797-1.3812-2.3472-1.2175-4.9365-2.1736-7.6181-2.0921zm88.712 2.2899c-2.4932 7e-3 -4.9432 0.6576-7.2502 1.5638-0.54626 0.26278-0.99687 0.96966-0.64152 1.5511 0.4558 0.73717 1.5391 0.7816 2.2315 0.37258 2.114-1.2051 4.6306-1.9387 7.062-1.4333 0.82021 0.16678 1.6018 0.48175 2.3437 0.86419 0.52789 0.16901 1.3183-0.0137 1.4041-0.64938 0.012-0.65851-0.53217-1.1665-1.0552-1.4783-1.2924-0.53959-2.6971-0.78816-4.0948-0.79073zm-78.605 29.927c-0.58093 3e-3 -1.1276 0.28901-1.5163 0.7107-1.7417 1.5354-3.9256 2.733-6.2936 2.7878-0.85187 0.0354-1.7002-0.10974-2.5238-0.30327-0.58288-0.0578-1.3756 0.35849-1.2105 1.0399 0.18732 0.56536 0.76198 0.90252 1.287 1.0973 2.6583 0.48089 5.3809-0.24521 7.7612-1.423 1.0709-0.52897 2.1083-1.1323 3.092-1.808 0.48124-0.35125 0.82752-1.0641 0.44981-1.6095-0.22759-0.33579-0.64979-0.49607-1.0456-0.49219zm71.116 1.4561c-0.6025-0.0712-1.2888 0.37606-1.2535 1.0296 0.0342 0.70927 0.66535 1.1648 1.2049 1.5191 2.3803 1.6792 5.0782 3.1205 8.0316 3.3543 0.68343 0.0502 1.3766 0.0416 2.0541-0.0548 0.55231-0.21321 1.2308-0.5474 1.3057-1.2081 1e-3 -0.6098-0.70876-0.94844-1.2409-0.90806-1.9716 0.45295-4.09 0.12412-5.8522-0.86117-1.1717-0.63518-2.2111-1.4974-3.138-2.4461-0.32478-0.23415-0.70876-0.40036-1.1115-0.42471zm-66.518 7.1743c-0.70175 0.0667-1.2536 0.55288-1.8603 0.86619-2.4527 1.4719-4.8004 3.3622-6.1151 5.96-0.23106 0.46704-0.44376 0.95227-0.58801 1.4506-0.0411 0.59235-0.0337 1.353 0.53782 1.7016 0.57911 0.26631 1.2239-0.26831 1.375-0.81771 0.4384-1.9747 1.6504-3.7423 3.2966-4.9092 1.0536-0.76512 2.2462-1.334 3.4715-1.7552 0.65207-0.34343 1.2377-1.1177 0.96732-1.8808-0.15737-0.44074-0.63398-0.67791-1.085-0.61545zm60.159 0.99037c-0.59799-0.0171-1.0597 0.58196-0.96161 1.1566 0.091 0.72587 0.67962 1.3115 1.3476 1.5507 2.0964 1.0052 4.0569 2.5457 5.0391 4.7049 0.36163 0.77601 0.58419 1.6141 0.70027 2.459 0.18406 0.54866 0.86681 1.101 1.4253 0.69125 0.46486-0.37856 0.53263-1.0497 0.51112-1.605-0.59628-2.6368-2.3303-4.8603-4.3453-6.5931-0.9384-0.7982-1.9261-1.5622-2.9768-2.1964-0.23135-0.10501-0.48489-0.17642-0.73968-0.1681zm-35.15 13.682c-0.78936 0.0405-1.2602 0.87184-1.2875 1.5908 0.0137 0.52379 0.16108 1.046 0.17933 1.5756 0.20226 2.2092-0.18515 4.5546-1.5103 6.3803-0.38193 0.54124-0.83784 1.0261-1.3277 1.4705-0.32135 0.44461-0.43309 1.2434 0.13655 1.5419 0.59845 0.25999 1.2258-0.11288 1.7142-0.43959 1.8522-1.9709 2.7234-4.654 3.0322-7.2947 0.13832-1.2118 0.20745-2.4368 0.16336-3.6554-0.0684-0.57033-0.4534-1.1991-1.1002-1.1697zm10.278 0.51289c-0.70032-0.0648-1.1352 0.66393-1.1708 1.2793-0.1754 2.9617-0.0262 6.0586 1.2592 8.784 0.37765 0.78497 0.8432 1.5341 1.4174 2.1902 0.47964 0.34885 1.1288 0.74778 1.726 0.44325 0.52453-0.32854 0.42836-1.1073 0.0899-1.5336-1.4535-1.4086-2.3288-3.3666-2.4617-5.3819-0.10233-1.3252 0.0462-2.6696 0.34559-3.956 0.0581-0.76889-0.34576-1.7339-1.2057-1.825z" fill="#f36717"/>
	<path d="m144.9 136.94c-18.637 0-33.75 15.112-33.75 33.75 0 18.638 15.112 33.75 33.75 33.75 18.636 0 33.75-15.112 33.75-33.75 0-18.637-15.114-33.75-33.75-33.75z" fill="#ed1c24"/>
	<path d="m140.79 150.53c-6.2959 0.0625-12.315 2.2784-16.433 9.8272l-0.26529 0.48928 0.54529-0.13558c3.2587-0.76723 5.9269-1.258 8.0082-1.4914 2.0816-0.23346 3.5748-0.19861 4.4361 0.0767h0.012c0.37675 0.10826 0.71841 0.2253 0.96681 0.53645 0.2484 0.31114 0.43098 0.86083 0.35666 1.9277v0.012l-0.6013 14.493c-1.4229 1.9877-2.8389 3.0316-4.2327 3.2305-1.8267-4.1411-2.3042-9.2848-0.61311-15.074l-0.41267-0.25644c-0.0348 0.0348-0.0302 0.0773-0.0649 0.11202-5.3165 5.3722-7.1008 11.466-6.3638 16.966 0.74185 5.5357 3.9851 10.461 8.545 13.458 4.5598 2.9974 10.448 4.066 16.477 1.8835 6.017-2.1782 12.158-7.5947 17.27-17.479 0.01-0.0194 0.0222-0.0279 0.0325-0.0473l-0.42442-0.26529c-4.3284 5.3955-9.1017 8.5507-13.712 9.9242-0.0651 0.0177-0.29996-0.0126-0.48043-0.15623-0.18047-0.14345-0.3217-0.35815-0.31246-0.68971v-0.012l0.20043-24.774c-0.0148-0.38946 0.0228-0.6872 0.0914-0.89311s0.16188-0.32609 0.30065-0.42151c0.27755-0.19085 0.79997-0.25827 1.5711-0.24761h0.0211c5.6739-0.39277 9.9424-2.9049 12.336-8.3887 0.12862-0.29478 0.24863-0.53702 0.37748-0.86659l-0.68087 0.44507c-2.5541 1.6523-6.6712 1.123-11.463 0.14442-4.7916-0.97855-10.237-2.3806-15.484-2.3286zm6.5731 10.128c0.22867-3e-3 0.47325 0.0165 0.71333 0.0559 0.49207 0.0807 0.97616 0.18429 1.3146 0.34486 0.33846 0.16056 0.50861 0.32597 0.51289 0.62195l-0.30065 25.467c-0.016 1.0127-0.0884 1.6174-0.2771 1.9159-0.0943 0.14927-0.21235 0.24977-0.41267 0.32421-0.1953 0.0726-0.47913 0.11379-0.84891 0.13261-4.9708-0.22045-9.3235-2.5778-12.276-6.337l9.3703-7.3745 1.014-14.505v-0.012c0.0302-0.22525 0.14351-0.34885 0.34485-0.45688 0.20449-0.10969 0.50428-0.17237 0.84594-0.17688z" fill="#fff"/>
</svg>
